<svg width="459" height="230" viewBox="0 0 459 230" fill="none" xmlns="http://www.w3.org/2000/svg">
<g clip-path="url(#clip0_540_3256)">
<path d="M66.77 14.9951H65.566V17.0671H63.508V14.9951H59.238V13.5251L63.62 7.07106H65.566V13.3571H66.77V14.9951ZM63.508 11.6631C63.508 11.5044 63.508 11.3177 63.508 11.1031C63.5173 10.8791 63.5267 10.6597 63.536 10.4451C63.5453 10.2211 63.5547 10.0251 63.564 9.85706C63.5733 9.67973 63.5827 9.5584 63.592 9.49306H63.536C63.452 9.67973 63.3633 9.86173 63.27 10.0391C63.1767 10.2164 63.0647 10.3984 62.934 10.5851L61.1 13.3571H63.508V11.6631ZM70.1477 15.5971C70.0637 15.9237 69.9564 16.2784 69.8257 16.6611C69.6951 17.0344 69.5551 17.4077 69.4057 17.7811C69.2564 18.1637 69.1024 18.5277 68.9437 18.8731H67.4457C67.5391 18.4997 67.6277 18.1077 67.7117 17.6971C67.7957 17.2957 67.8751 16.8991 67.9497 16.5071C68.0244 16.1151 68.0851 15.7604 68.1317 15.4431H70.0497L70.1477 15.5971ZM76.7859 17.0671H74.6719V11.2851C74.6719 11.1264 74.6719 10.9304 74.6719 10.6971C74.6812 10.4637 74.6906 10.2211 74.6999 9.96906C74.7092 9.71706 74.7186 9.49306 74.7279 9.29706C74.6812 9.35306 74.5786 9.45573 74.4199 9.60506C74.2706 9.74506 74.1306 9.87106 73.9999 9.98306L72.8519 10.9071L71.8299 9.63306L75.0499 7.07106H76.7859V17.0671Z" fill="#333333"/>
<path d="M38.7186 220.021C38.7186 220.577 38.5216 221.025 38.1277 221.365C37.7338 221.705 37.2317 221.917 36.6216 222.002V222.037C37.3785 222.114 37.9578 222.327 38.3594 222.674C38.7688 223.014 38.9734 223.458 38.9734 224.006C38.9734 224.485 38.8421 224.914 38.5795 225.292C38.3169 225.663 37.9269 225.953 37.4094 226.161C36.8919 226.37 36.2508 226.474 35.4862 226.474C34.8605 226.474 34.3044 226.436 33.8178 226.358C33.3389 226.281 32.9219 226.169 32.5666 226.022V224.551C32.806 224.667 33.0763 224.767 33.3776 224.852C33.6788 224.929 33.9839 224.991 34.2928 225.038C34.6018 225.076 34.8876 225.095 35.1502 225.095C35.8839 225.095 36.413 224.991 36.7374 224.783C37.0695 224.566 37.2356 224.265 37.2356 223.879C37.2356 223.485 36.9962 223.199 36.5173 223.022C36.0384 222.836 35.3935 222.744 34.5825 222.744H33.8062V221.376H34.5014C35.1579 221.376 35.6677 221.334 36.0307 221.249C36.3937 221.164 36.6486 221.041 36.7953 220.878C36.9421 220.716 37.0155 220.523 37.0155 220.299C37.0155 220.013 36.888 219.789 36.6331 219.627C36.386 219.457 36.0114 219.372 35.5093 219.372C35.0845 219.372 34.6829 219.434 34.3044 219.558C33.9337 219.681 33.5861 219.843 33.2617 220.044L32.4971 218.874C32.7828 218.689 33.0841 218.53 33.4007 218.399C33.7251 218.26 34.0804 218.156 34.4666 218.086C34.8528 218.009 35.2815 217.97 35.7526 217.97C36.3783 217.97 36.9112 218.059 37.3515 218.237C37.7917 218.414 38.1277 218.658 38.3594 218.967C38.5988 219.268 38.7186 219.619 38.7186 220.021ZM42.9756 219.905C43.8252 219.905 44.474 220.09 44.922 220.461C45.3777 220.824 45.6055 221.384 45.6055 222.141V226.358H44.4006L44.0646 225.501H44.0183C43.8406 225.725 43.6553 225.91 43.4622 226.057C43.2768 226.204 43.0605 226.308 42.8134 226.37C42.5739 226.439 42.2766 226.474 41.9213 226.474C41.5505 226.474 41.2146 226.405 40.9133 226.266C40.6198 226.119 40.3881 225.899 40.2182 225.605C40.0483 225.304 39.9633 224.926 39.9633 224.47C39.9633 223.798 40.1989 223.304 40.67 222.987C41.1412 222.663 41.8479 222.485 42.7902 222.454L43.8908 222.419V222.141C43.8908 221.809 43.802 221.566 43.6244 221.411C43.4544 221.257 43.215 221.18 42.9061 221.18C42.5971 221.18 42.2959 221.226 42.0024 221.319C41.7089 221.404 41.4154 221.512 41.1219 221.643L40.5542 220.473C40.894 220.295 41.2686 220.156 41.678 220.056C42.0951 219.955 42.5276 219.905 42.9756 219.905ZM43.2189 223.45C42.6628 223.466 42.2766 223.566 42.0603 223.752C41.844 223.937 41.7359 224.18 41.7359 224.481C41.7359 224.744 41.8131 224.933 41.9676 225.049C42.1221 225.157 42.3229 225.211 42.5701 225.211C42.9408 225.211 43.2536 225.103 43.5085 224.887C43.7634 224.663 43.8908 224.35 43.8908 223.949V223.427L43.2189 223.45ZM53.119 220.033V226.358H51.3928V221.33H49.0988V226.358H47.3725V220.033H53.119ZM54.6871 225.547C54.6871 225.192 54.7836 224.945 54.9767 224.806C55.1698 224.659 55.4054 224.586 55.6834 224.586C55.9538 224.586 56.1855 224.659 56.3786 224.806C56.5717 224.945 56.6682 225.192 56.6682 225.547C56.6682 225.887 56.5717 226.134 56.3786 226.289C56.1855 226.436 55.9538 226.509 55.6834 226.509C55.4054 226.509 55.1698 226.436 54.9767 226.289C54.7836 226.134 54.6871 225.887 54.6871 225.547ZM64.8931 219.43C64.561 219.43 64.2637 219.496 64.001 219.627C63.7462 219.758 63.5299 219.948 63.3522 220.195C63.1746 220.434 63.0394 220.728 62.9467 221.075C62.8618 221.423 62.8193 221.813 62.8193 222.245C62.8193 222.832 62.8888 223.334 63.0278 223.752C63.1746 224.161 63.4025 224.474 63.7114 224.69C64.0204 224.906 64.4143 225.014 64.8931 225.014C65.233 225.014 65.569 224.976 65.9011 224.899C66.2409 224.821 66.6078 224.713 67.0017 224.574V226.046C66.6387 226.192 66.2796 226.3 65.9243 226.37C65.569 226.439 65.1712 226.474 64.7309 226.474C63.8813 226.474 63.1785 226.3 62.6224 225.953C62.074 225.598 61.6685 225.103 61.4059 224.47C61.1432 223.829 61.0119 223.083 61.0119 222.234C61.0119 221.608 61.0969 221.037 61.2668 220.519C61.4367 219.994 61.6839 219.542 62.0083 219.164C62.3404 218.785 62.7459 218.492 63.2248 218.283C63.7114 218.075 64.2675 217.97 64.8931 217.97C65.3025 217.97 65.7119 218.024 66.1212 218.133C66.5383 218.233 66.9361 218.372 67.3146 218.55L66.7469 219.975C66.4379 219.828 66.1251 219.7 65.8084 219.592C65.4995 219.484 65.1944 219.43 64.8931 219.43ZM70.2888 222.535C70.2888 222.666 70.2811 222.829 70.2656 223.022C70.2579 223.215 70.2463 223.412 70.2309 223.613C70.2232 223.813 70.2116 223.991 70.1961 224.145C70.1807 224.3 70.1691 224.408 70.1614 224.47L73.081 220.033H75.1548V226.358H73.4865V223.833C73.4865 223.624 73.4942 223.396 73.5096 223.149C73.5251 222.894 73.5405 222.659 73.556 222.442C73.5791 222.218 73.5946 222.048 73.6023 221.933L70.6943 226.358H68.6205V220.033H70.2888V222.535ZM76.5767 222.57C76.5767 221.635 76.6925 220.844 76.9242 220.195C77.1559 219.538 77.5228 219.017 78.0249 218.631C78.5269 218.237 79.1834 217.97 79.9944 217.831C80.4038 217.762 80.817 217.704 81.2341 217.657C81.6589 217.603 82.0953 217.549 82.5433 217.495L82.7402 219.001C82.5472 219.025 82.3347 219.052 82.103 219.083C81.8713 219.106 81.6357 219.133 81.3963 219.164C81.1646 219.187 80.9406 219.214 80.7243 219.245C80.5081 219.276 80.3111 219.303 80.1335 219.326C79.8477 219.372 79.5967 219.438 79.3804 219.523C79.1641 219.6 78.9826 219.712 78.8359 219.859C78.6891 220.006 78.5733 220.206 78.4883 220.461C78.4111 220.708 78.3609 221.029 78.3377 221.423H78.4188C78.5115 221.276 78.6389 221.129 78.8011 220.983C78.971 220.836 79.1796 220.712 79.4267 220.612C79.6739 220.511 79.9558 220.461 80.2725 220.461C80.7745 220.461 81.2109 220.565 81.5817 220.774C81.9524 220.983 82.2382 221.292 82.439 221.701C82.6398 222.11 82.7402 222.62 82.7402 223.23C82.7402 223.949 82.6089 224.547 82.3463 225.026C82.0837 225.505 81.7207 225.868 81.2573 226.115C80.7939 226.354 80.257 226.474 79.6469 226.474C79.1834 226.474 78.7625 226.389 78.384 226.219C78.0056 226.049 77.6812 225.798 77.4108 225.466C77.1405 225.134 76.932 224.725 76.7852 224.238C76.6462 223.752 76.5767 223.195 76.5767 222.57ZM79.7511 225.072C79.9983 225.072 80.2107 225.018 80.3884 224.91C80.5737 224.802 80.7166 224.624 80.817 224.377C80.9252 224.13 80.9792 223.798 80.9792 223.381C80.9792 222.879 80.8943 222.481 80.7243 222.187C80.5621 221.886 80.2764 221.736 79.867 221.736C79.6198 221.736 79.3881 221.797 79.1719 221.921C78.9633 222.037 78.7857 222.172 78.6389 222.327C78.4922 222.473 78.3918 222.601 78.3377 222.709C78.3377 223.01 78.3609 223.304 78.4072 223.589C78.4535 223.867 78.5308 224.118 78.6389 224.342C78.747 224.566 78.8899 224.744 79.0676 224.875C79.253 225.007 79.4808 225.072 79.7511 225.072ZM85.8344 222.535C85.8344 222.666 85.8267 222.829 85.8113 223.022C85.8035 223.215 85.792 223.412 85.7765 223.613C85.7688 223.813 85.7572 223.991 85.7418 224.145C85.7263 224.3 85.7147 224.408 85.707 224.47L88.6266 220.033H90.7004V226.358H89.0321V223.833C89.0321 223.624 89.0398 223.396 89.0553 223.149C89.0707 222.894 89.0862 222.659 89.1016 222.442C89.1248 222.218 89.1402 222.048 89.1479 221.933L86.2399 226.358H84.1661V220.033H85.8344V222.535ZM96.0267 219.917C96.7373 219.917 97.3127 220.195 97.7529 220.751C98.1932 221.299 98.4133 222.11 98.4133 223.184C98.4133 223.902 98.309 224.508 98.1005 225.003C97.892 225.489 97.6062 225.856 97.2432 226.103C96.8801 226.351 96.4592 226.474 95.9803 226.474C95.6791 226.474 95.4165 226.436 95.1925 226.358C94.9762 226.281 94.7909 226.181 94.6364 226.057C94.4819 225.934 94.3467 225.802 94.2309 225.663H94.1382C94.1691 225.81 94.1923 225.964 94.2077 226.127C94.2232 226.281 94.2309 226.436 94.2309 226.59V229.139H92.5046V220.033H93.9065L94.1498 220.855H94.2309C94.3467 220.685 94.4858 220.531 94.648 220.392C94.8102 220.245 95.0033 220.129 95.2273 220.044C95.459 219.959 95.7254 219.917 96.0267 219.917ZM95.4706 221.295C95.1693 221.295 94.9299 221.357 94.7522 221.481C94.5746 221.604 94.4433 221.794 94.3583 222.048C94.2811 222.296 94.2386 222.608 94.2309 222.987V223.172C94.2309 223.582 94.2695 223.929 94.3467 224.215C94.424 224.493 94.5553 224.705 94.7407 224.852C94.926 224.999 95.177 225.072 95.4937 225.072C95.7563 225.072 95.9726 224.999 96.1425 224.852C96.3124 224.705 96.4399 224.489 96.5249 224.203C96.6098 223.918 96.6523 223.57 96.6523 223.161C96.6523 222.543 96.5557 222.079 96.3627 221.77C96.1773 221.454 95.8799 221.295 95.4706 221.295ZM102.779 222.477C103.428 222.477 103.965 222.547 104.389 222.686C104.814 222.817 105.127 223.022 105.328 223.3C105.536 223.578 105.641 223.925 105.641 224.342C105.641 224.752 105.544 225.107 105.351 225.408C105.166 225.71 104.868 225.945 104.459 226.115C104.05 226.277 103.513 226.358 102.848 226.358H99.8362V220.033H101.562V222.477H102.779ZM103.914 224.366C103.914 224.118 103.814 223.941 103.613 223.833C103.42 223.725 103.13 223.67 102.744 223.67H101.562V225.165H102.767C103.107 225.165 103.381 225.103 103.59 224.98C103.806 224.856 103.914 224.651 103.914 224.366Z" fill="#333333"/>
<path d="M157.229 218.086C157.962 218.086 158.576 218.156 159.071 218.295C159.573 218.426 159.947 218.646 160.194 218.955C160.449 219.256 160.577 219.666 160.577 220.183C160.577 220.492 160.527 220.774 160.426 221.029C160.326 221.284 160.179 221.492 159.986 221.655C159.801 221.817 159.573 221.921 159.302 221.967V222.025C159.58 222.079 159.831 222.176 160.055 222.315C160.279 222.454 160.457 222.655 160.588 222.917C160.72 223.18 160.785 223.528 160.785 223.96C160.785 224.462 160.662 224.895 160.415 225.258C160.175 225.613 159.828 225.887 159.372 226.08C158.916 226.266 158.375 226.358 157.75 226.358H154.656V218.086H157.229ZM157.425 221.365C157.935 221.365 158.287 221.284 158.48 221.122C158.681 220.959 158.781 220.724 158.781 220.415C158.781 220.098 158.665 219.87 158.433 219.731C158.202 219.592 157.835 219.523 157.333 219.523H156.406V221.365H157.425ZM156.406 222.755V224.91H157.553C158.078 224.91 158.445 224.81 158.654 224.609C158.862 224.4 158.966 224.126 158.966 223.786C158.966 223.578 158.92 223.396 158.827 223.242C158.742 223.087 158.592 222.968 158.375 222.883C158.159 222.798 157.866 222.755 157.495 222.755H156.406ZM165.951 219.43C165.619 219.43 165.322 219.496 165.059 219.627C164.804 219.758 164.588 219.948 164.41 220.195C164.233 220.434 164.097 220.728 164.005 221.075C163.92 221.423 163.877 221.813 163.877 222.245C163.877 222.832 163.947 223.334 164.086 223.752C164.233 224.161 164.46 224.474 164.769 224.69C165.078 224.906 165.472 225.014 165.951 225.014C166.291 225.014 166.627 224.976 166.959 224.899C167.299 224.821 167.666 224.713 168.06 224.574V226.046C167.697 226.192 167.337 226.3 166.982 226.37C166.627 226.439 166.229 226.474 165.789 226.474C164.939 226.474 164.236 226.3 163.68 225.953C163.132 225.598 162.726 225.103 162.464 224.47C162.201 223.829 162.07 223.083 162.07 222.234C162.07 221.608 162.155 221.037 162.325 220.519C162.495 219.994 162.742 219.542 163.066 219.164C163.398 218.785 163.804 218.492 164.283 218.283C164.769 218.075 165.325 217.97 165.951 217.97C166.36 217.97 166.77 218.024 167.179 218.133C167.596 218.233 167.994 218.372 168.372 218.55L167.805 219.975C167.496 219.828 167.183 219.7 166.866 219.592C166.557 219.484 166.252 219.43 165.951 219.43ZM171.347 222.535C171.347 222.666 171.339 222.829 171.324 223.022C171.316 223.215 171.304 223.412 171.289 223.613C171.281 223.813 171.269 223.991 171.254 224.145C171.239 224.3 171.227 224.408 171.219 224.47L174.139 220.033H176.213V226.358H174.544V223.833C174.544 223.624 174.552 223.396 174.568 223.149C174.583 222.894 174.598 222.659 174.614 222.442C174.637 222.218 174.653 222.048 174.66 221.933L171.752 226.358H169.678V220.033H171.347V222.535ZM184.632 218.086V224.899H185.733V228.768H184.041V226.358H178.863V228.768H177.171V224.899H177.808C178.025 224.466 178.233 224.01 178.434 223.531C178.635 223.053 178.82 222.539 178.99 221.991C179.168 221.442 179.326 220.847 179.465 220.206C179.604 219.558 179.72 218.851 179.813 218.086H184.632ZM181.203 219.546C181.149 219.948 181.072 220.376 180.971 220.832C180.871 221.28 180.751 221.74 180.612 222.211C180.481 222.682 180.334 223.145 180.172 223.601C180.01 224.057 179.836 224.489 179.65 224.899H182.883V219.546H181.203ZM189.576 218.086C190.309 218.086 190.923 218.156 191.418 218.295C191.92 218.426 192.294 218.646 192.542 218.955C192.796 219.256 192.924 219.666 192.924 220.183C192.924 220.492 192.874 220.774 192.773 221.029C192.673 221.284 192.526 221.492 192.333 221.655C192.148 221.817 191.92 221.921 191.649 221.967V222.025C191.928 222.079 192.179 222.176 192.403 222.315C192.627 222.454 192.804 222.655 192.935 222.917C193.067 223.18 193.132 223.528 193.132 223.96C193.132 224.462 193.009 224.895 192.762 225.258C192.522 225.613 192.175 225.887 191.719 226.08C191.263 226.266 190.723 226.358 190.097 226.358H187.004V218.086H189.576ZM189.773 221.365C190.282 221.365 190.634 221.284 190.827 221.122C191.028 220.959 191.128 220.724 191.128 220.415C191.128 220.098 191.012 219.87 190.781 219.731C190.549 219.592 190.182 219.523 189.68 219.523H188.753V221.365H189.773ZM188.753 222.755V224.91H189.9C190.425 224.91 190.792 224.81 191.001 224.609C191.209 224.4 191.313 224.126 191.313 223.786C191.313 223.578 191.267 223.396 191.174 223.242C191.089 223.087 190.939 222.968 190.723 222.883C190.506 222.798 190.213 222.755 189.842 222.755H188.753Z" fill="#333333"/>
<path d="M248.628 226.358H243.866V218.086H248.628V219.523H245.616V221.342H248.419V222.778H245.616V224.91H248.628V226.358ZM255.818 221.689C255.818 222.029 255.71 222.319 255.493 222.558C255.285 222.798 254.972 222.952 254.555 223.022V223.068C254.995 223.122 255.346 223.273 255.609 223.52C255.879 223.767 256.015 224.084 256.015 224.47C256.015 224.74 255.961 224.991 255.852 225.223C255.752 225.455 255.59 225.655 255.366 225.825C255.142 225.995 254.852 226.127 254.497 226.219C254.149 226.312 253.724 226.358 253.222 226.358H250.21V220.033H253.222C253.717 220.033 254.157 220.087 254.543 220.195C254.937 220.295 255.246 220.465 255.47 220.705C255.702 220.944 255.818 221.272 255.818 221.689ZM254.23 224.377C254.23 224.13 254.134 223.952 253.941 223.844C253.748 223.728 253.458 223.67 253.072 223.67H251.936V225.165H253.107C253.431 225.165 253.697 225.107 253.906 224.991C254.122 224.868 254.23 224.663 254.23 224.377ZM254.068 221.828C254.068 221.628 253.991 221.481 253.836 221.388C253.682 221.295 253.454 221.249 253.153 221.249H251.936V222.5H252.956C253.319 222.5 253.593 222.45 253.779 222.35C253.972 222.242 254.068 222.068 254.068 221.828ZM261.019 219.917C261.729 219.917 262.305 220.195 262.745 220.751C263.185 221.299 263.405 222.11 263.405 223.184C263.405 223.902 263.301 224.508 263.092 225.003C262.884 225.489 262.598 225.856 262.235 226.103C261.872 226.351 261.451 226.474 260.972 226.474C260.671 226.474 260.408 226.436 260.184 226.358C259.968 226.281 259.783 226.181 259.628 226.057C259.474 225.934 259.339 225.802 259.223 225.663H259.13C259.161 225.81 259.184 225.964 259.2 226.127C259.215 226.281 259.223 226.436 259.223 226.59V229.139H257.496V220.033H258.898L259.142 220.855H259.223C259.339 220.685 259.478 220.531 259.64 220.392C259.802 220.245 259.995 220.129 260.219 220.044C260.451 219.959 260.717 219.917 261.019 219.917ZM260.462 221.295C260.161 221.295 259.922 221.357 259.744 221.481C259.566 221.604 259.435 221.794 259.35 222.048C259.273 222.296 259.23 222.608 259.223 222.987V223.172C259.223 223.582 259.261 223.929 259.339 224.215C259.416 224.493 259.547 224.705 259.733 224.852C259.918 224.999 260.169 225.072 260.486 225.072C260.748 225.072 260.964 224.999 261.134 224.852C261.304 224.705 261.432 224.489 261.517 224.203C261.602 223.918 261.644 223.57 261.644 223.161C261.644 222.543 261.548 222.079 261.355 221.77C261.169 221.454 260.872 221.295 260.462 221.295ZM264.585 225.547C264.585 225.192 264.681 224.945 264.874 224.806C265.067 224.659 265.303 224.586 265.581 224.586C265.851 224.586 266.083 224.659 266.276 224.806C266.469 224.945 266.566 225.192 266.566 225.547C266.566 225.887 266.469 226.134 266.276 226.289C266.083 226.436 265.851 226.509 265.581 226.509C265.303 226.509 265.067 226.436 264.874 226.289C264.681 226.134 264.585 225.887 264.585 225.547ZM272.659 222.35C272.659 222.62 272.725 222.825 272.856 222.964C272.995 223.103 273.184 223.172 273.424 223.172C273.756 223.172 274.065 223.138 274.351 223.068C274.636 222.991 274.922 222.89 275.208 222.767V220.033H276.934V226.358H275.208V223.844C274.938 223.991 274.629 224.126 274.281 224.25C273.933 224.366 273.54 224.424 273.099 224.424C272.443 224.424 271.918 224.254 271.524 223.914C271.13 223.574 270.933 223.064 270.933 222.384V220.033H272.659V222.35ZM281.34 219.905C282.189 219.905 282.838 220.09 283.286 220.461C283.742 220.824 283.97 221.384 283.97 222.141V226.358H282.765L282.429 225.501H282.382C282.205 225.725 282.019 225.91 281.826 226.057C281.641 226.204 281.425 226.308 281.177 226.37C280.938 226.439 280.641 226.474 280.285 226.474C279.915 226.474 279.579 226.405 279.277 226.266C278.984 226.119 278.752 225.899 278.582 225.605C278.412 225.304 278.327 224.926 278.327 224.47C278.327 223.798 278.563 223.304 279.034 222.987C279.505 222.663 280.212 222.485 281.154 222.454L282.255 222.419V222.141C282.255 221.809 282.166 221.566 281.988 221.411C281.818 221.257 281.579 221.18 281.27 221.18C280.961 221.18 280.66 221.226 280.366 221.319C280.073 221.404 279.779 221.512 279.486 221.643L278.918 220.473C279.258 220.295 279.633 220.156 280.042 220.056C280.459 219.955 280.892 219.905 281.34 219.905ZM281.583 223.45C281.027 223.466 280.641 223.566 280.424 223.752C280.208 223.937 280.1 224.18 280.1 224.481C280.1 224.744 280.177 224.933 280.332 225.049C280.486 225.157 280.687 225.211 280.934 225.211C281.305 225.211 281.618 225.103 281.873 224.887C282.127 224.663 282.255 224.35 282.255 223.949V223.427L281.583 223.45ZM288.309 226.474C287.683 226.474 287.15 226.362 286.71 226.138C286.27 225.906 285.934 225.551 285.702 225.072C285.47 224.593 285.354 223.979 285.354 223.23C285.354 222.458 285.486 221.828 285.748 221.342C286.011 220.855 286.374 220.496 286.837 220.264C287.308 220.033 287.849 219.917 288.459 219.917C288.892 219.917 289.266 219.959 289.583 220.044C289.907 220.129 290.189 220.23 290.429 220.345L289.919 221.678C289.649 221.57 289.394 221.481 289.154 221.411C288.923 221.342 288.691 221.307 288.459 221.307C288.158 221.307 287.907 221.38 287.706 221.527C287.505 221.666 287.355 221.879 287.254 222.164C287.162 222.442 287.115 222.794 287.115 223.219C287.115 223.636 287.165 223.983 287.266 224.261C287.374 224.532 287.528 224.736 287.729 224.875C287.93 225.007 288.173 225.072 288.459 225.072C288.822 225.072 289.143 225.026 289.421 224.933C289.699 224.833 289.969 224.698 290.232 224.528V225.999C289.969 226.169 289.691 226.289 289.398 226.358C289.112 226.436 288.749 226.474 288.309 226.474ZM296.925 221.33H294.851V226.358H293.124V221.33H291.051V220.033H296.925V221.33ZM301.034 222.477C301.683 222.477 302.22 222.547 302.645 222.686C303.07 222.817 303.382 223.022 303.583 223.3C303.792 223.578 303.896 223.925 303.896 224.342C303.896 224.752 303.799 225.107 303.606 225.408C303.421 225.71 303.124 225.945 302.714 226.115C302.305 226.277 301.768 226.358 301.104 226.358H298.092V220.033H299.818V222.477H301.034ZM302.17 224.366C302.17 224.118 302.069 223.941 301.869 223.833C301.675 223.725 301.386 223.67 301 223.67H299.818V225.165H301.023C301.363 225.165 301.637 225.103 301.845 224.98C302.062 224.856 302.17 224.651 302.17 224.366ZM310.998 218.086C312.064 218.086 312.84 218.318 313.327 218.781C313.821 219.237 314.069 219.866 314.069 220.67C314.069 221.033 314.014 221.38 313.906 221.712C313.798 222.037 313.617 222.33 313.362 222.593C313.115 222.848 312.786 223.049 312.377 223.195C311.968 223.342 311.462 223.416 310.859 223.416H310.106V226.358H308.357V218.086H310.998ZM310.906 219.523H310.106V221.979H310.686C311.018 221.979 311.303 221.936 311.543 221.852C311.782 221.767 311.968 221.631 312.099 221.446C312.23 221.261 312.296 221.021 312.296 220.728C312.296 220.318 312.184 220.017 311.96 219.824C311.736 219.623 311.385 219.523 310.906 219.523ZM320.359 217.97V218.99C321.262 219.013 321.981 219.171 322.514 219.465C323.054 219.751 323.441 220.121 323.672 220.577C323.912 221.033 324.031 221.531 324.031 222.072C324.031 222.419 323.97 222.775 323.846 223.138C323.73 223.501 323.529 223.837 323.244 224.145C322.966 224.447 322.591 224.694 322.12 224.887C321.649 225.08 321.062 225.184 320.359 225.2V226.474H318.783V225.2C318.072 225.184 317.478 225.08 316.999 224.887C316.528 224.694 316.153 224.443 315.875 224.134C315.597 223.825 315.4 223.493 315.284 223.138C315.168 222.775 315.11 222.419 315.11 222.072C315.11 221.67 315.176 221.288 315.307 220.925C315.439 220.562 315.647 220.237 315.933 219.951C316.219 219.666 316.597 219.438 317.068 219.268C317.54 219.098 318.111 219.005 318.783 218.99V217.97H320.359ZM318.783 220.357C318.281 220.38 317.879 220.469 317.578 220.623C317.285 220.77 317.072 220.967 316.941 221.214C316.817 221.461 316.756 221.743 316.756 222.06C316.756 222.408 316.825 222.713 316.964 222.975C317.111 223.23 317.331 223.435 317.625 223.589C317.926 223.736 318.312 223.821 318.783 223.844V220.357ZM320.359 223.844C320.83 223.821 321.212 223.736 321.506 223.589C321.807 223.435 322.027 223.23 322.166 222.975C322.313 222.713 322.386 222.408 322.386 222.06C322.386 221.743 322.321 221.461 322.189 221.214C322.066 220.967 321.853 220.77 321.552 220.623C321.259 220.469 320.861 220.38 320.359 220.357V223.844Z" fill="#333333"/>
<path d="M384.03 226.358H373.626V218.086H375.375V224.899H377.947V218.086H379.708V224.899H382.28V218.086H384.03V226.358ZM388.584 219.917C389.171 219.917 389.673 220.029 390.091 220.253C390.515 220.477 390.844 220.801 391.075 221.226C391.307 221.651 391.423 222.172 391.423 222.79V223.624H387.345C387.36 224.111 387.503 224.493 387.773 224.771C388.051 225.049 388.434 225.188 388.92 225.188C389.33 225.188 389.7 225.15 390.033 225.072C390.365 224.987 390.708 224.86 391.064 224.69V226.022C390.755 226.177 390.427 226.289 390.079 226.358C389.739 226.436 389.326 226.474 388.839 226.474C388.206 226.474 387.646 226.358 387.159 226.127C386.673 225.887 386.29 225.528 386.012 225.049C385.734 224.57 385.595 223.968 385.595 223.242C385.595 222.5 385.719 221.886 385.966 221.4C386.221 220.905 386.572 220.535 387.02 220.287C387.468 220.04 387.99 219.917 388.584 219.917ZM388.596 221.145C388.264 221.145 387.986 221.253 387.762 221.469C387.546 221.685 387.418 222.021 387.379 222.477H389.801C389.801 222.222 389.755 221.994 389.662 221.794C389.577 221.593 389.446 221.434 389.268 221.319C389.09 221.203 388.866 221.145 388.596 221.145ZM398.488 226.358H396.762V221.33H395.175C395.097 222.257 395.001 223.049 394.885 223.705C394.777 224.354 394.638 224.883 394.468 225.292C394.306 225.702 394.097 226.003 393.842 226.196C393.587 226.382 393.275 226.474 392.904 226.474C392.703 226.474 392.521 226.459 392.359 226.428C392.197 226.397 392.05 226.351 391.919 226.289V224.91C392.004 224.941 392.093 224.968 392.185 224.991C392.278 225.014 392.375 225.026 392.475 225.026C392.583 225.026 392.684 224.984 392.776 224.899C392.877 224.814 392.969 224.663 393.054 224.447C393.147 224.23 393.232 223.933 393.309 223.555C393.387 223.176 393.456 222.701 393.518 222.13C393.587 221.55 393.649 220.851 393.703 220.033H398.488V226.358ZM403.233 222.477C403.882 222.477 404.418 222.547 404.843 222.686C405.268 222.817 405.581 223.022 405.782 223.3C405.99 223.578 406.094 223.925 406.094 224.342C406.094 224.752 405.998 225.107 405.805 225.408C405.619 225.71 405.322 225.945 404.913 226.115C404.503 226.277 403.967 226.358 403.302 226.358H400.29V220.033H402.016V222.477H403.233ZM404.368 224.366C404.368 224.118 404.268 223.941 404.067 223.833C403.874 223.725 403.584 223.67 403.198 223.67H402.016V225.165H403.221C403.561 225.165 403.835 225.103 404.044 224.98C404.26 224.856 404.368 224.651 404.368 224.366ZM412.029 219.998C412.763 220.06 413.381 220.233 413.883 220.519C414.385 220.797 414.764 221.164 415.018 221.62C415.281 222.075 415.412 222.601 415.412 223.195C415.412 223.782 415.285 224.308 415.03 224.771C414.783 225.235 414.408 225.609 413.906 225.895C413.412 226.173 412.786 226.343 412.029 226.405V229.139H410.43V226.405C409.704 226.335 409.087 226.161 408.577 225.883C408.075 225.598 407.689 225.227 407.418 224.771C407.156 224.308 407.024 223.782 407.024 223.195C407.024 222.593 407.144 222.06 407.383 221.597C407.631 221.133 408.005 220.762 408.507 220.484C409.017 220.206 409.658 220.044 410.43 219.998V217.553H412.029V219.998ZM410.43 221.295C410.098 221.342 409.809 221.454 409.562 221.631C409.314 221.801 409.125 222.021 408.994 222.292C408.863 222.554 408.797 222.856 408.797 223.195C408.797 223.535 408.859 223.84 408.982 224.111C409.114 224.381 409.299 224.601 409.538 224.771C409.786 224.941 410.083 225.049 410.43 225.095V221.295ZM412.029 225.095C412.377 225.049 412.67 224.941 412.91 224.771C413.149 224.601 413.331 224.381 413.454 224.111C413.578 223.84 413.64 223.535 413.64 223.195C413.64 222.856 413.574 222.554 413.443 222.292C413.311 222.021 413.126 221.801 412.887 221.631C412.647 221.461 412.361 221.357 412.029 221.319V225.095Z" fill="#333333"/>
<path d="M170.523 35.0343C170.523 35.4916 170.425 35.8883 170.229 36.2243C170.042 36.5603 169.785 36.8356 169.459 37.0503C169.141 37.2649 168.777 37.4236 168.367 37.5263V37.5683C169.169 37.6616 169.776 37.9043 170.187 38.2963C170.607 38.6883 170.817 39.2156 170.817 39.8783C170.817 40.4569 170.672 40.9796 170.383 41.4463C170.103 41.9036 169.664 42.2676 169.067 42.5383C168.479 42.7996 167.718 42.9303 166.785 42.9303C166.234 42.9303 165.721 42.8836 165.245 42.7903C164.769 42.6969 164.321 42.5616 163.901 42.3843V40.5923C164.33 40.8069 164.778 40.9703 165.245 41.0823C165.721 41.1943 166.159 41.2503 166.561 41.2503C167.317 41.2503 167.844 41.1196 168.143 40.8583C168.451 40.5969 168.605 40.2283 168.605 39.7523C168.605 39.4723 168.535 39.2389 168.395 39.0523C168.255 38.8563 168.007 38.7116 167.653 38.6183C167.307 38.5156 166.822 38.4643 166.197 38.4643H165.441V36.8403H166.211C166.827 36.8403 167.293 36.7843 167.611 36.6723C167.937 36.5509 168.157 36.3923 168.269 36.1963C168.39 35.9909 168.451 35.7576 168.451 35.4963C168.451 35.1416 168.339 34.8663 168.115 34.6703C167.9 34.4649 167.536 34.3623 167.023 34.3623C166.705 34.3623 166.416 34.4043 166.155 34.4883C165.893 34.5629 165.655 34.6563 165.441 34.7683C165.235 34.8803 165.053 34.9876 164.895 35.0903L163.915 33.6343C164.176 33.4476 164.465 33.2796 164.783 33.1303C165.109 32.9809 165.469 32.8643 165.861 32.7803C166.253 32.6963 166.691 32.6543 167.177 32.6543C168.203 32.6543 169.015 32.8643 169.613 33.2843C170.219 33.6949 170.523 34.2783 170.523 35.0343ZM174.516 41.3203C174.432 41.6469 174.325 42.0016 174.194 42.3843C174.064 42.7576 173.924 43.1309 173.774 43.5043C173.625 43.8869 173.471 44.2509 173.312 44.5963H171.814C171.908 44.2229 171.996 43.8309 172.08 43.4203C172.164 43.0189 172.244 42.6223 172.318 42.2303C172.393 41.8383 172.454 41.4836 172.5 41.1663H174.418L174.516 41.3203ZM182.862 37.7923C182.862 38.5949 182.797 39.3136 182.666 39.9483C182.545 40.5829 182.344 41.1243 182.064 41.5723C181.794 42.0109 181.434 42.3469 180.986 42.5803C180.548 42.8136 180.006 42.9303 179.362 42.9303C178.56 42.9303 177.902 42.7249 177.388 42.3143C176.875 41.9036 176.492 41.3156 176.24 40.5503C175.998 39.7849 175.876 38.8656 175.876 37.7923C175.876 36.7096 175.988 35.7856 176.212 35.0203C176.436 34.2549 176.805 33.6669 177.318 33.2563C177.832 32.8456 178.513 32.6403 179.362 32.6403C180.165 32.6403 180.823 32.8456 181.336 33.2563C181.85 33.6576 182.232 34.2456 182.484 35.0203C182.736 35.7856 182.862 36.7096 182.862 37.7923ZM177.976 37.7923C177.976 38.5483 178.018 39.1829 178.102 39.6963C178.186 40.2003 178.326 40.5829 178.522 40.8443C178.728 41.0963 179.008 41.2223 179.362 41.2223C179.717 41.2223 179.992 41.0963 180.188 40.8443C180.394 40.5923 180.538 40.2143 180.622 39.7103C180.716 39.1969 180.762 38.5576 180.762 37.7923C180.762 37.0269 180.716 36.3923 180.622 35.8883C180.538 35.3749 180.394 34.9923 180.188 34.7403C179.992 34.4789 179.717 34.3483 179.362 34.3483C179.008 34.3483 178.728 34.4789 178.522 34.7403C178.326 34.9923 178.186 35.3749 178.102 35.8883C178.018 36.3923 177.976 37.0269 177.976 37.7923Z" fill="#333333"/>
<path d="M282.591 198.07C282.591 198.873 282.526 199.592 282.395 200.226C282.274 200.861 282.073 201.402 281.793 201.85C281.522 202.289 281.163 202.625 280.715 202.858C280.276 203.092 279.735 203.208 279.091 203.208C278.288 203.208 277.63 203.003 277.117 202.592C276.604 202.182 276.221 201.594 275.969 200.828C275.726 200.063 275.605 199.144 275.605 198.07C275.605 196.988 275.717 196.064 275.941 195.298C276.165 194.533 276.534 193.945 277.047 193.534C277.56 193.124 278.242 192.918 279.091 192.918C279.894 192.918 280.552 193.124 281.065 193.534C281.578 193.936 281.961 194.524 282.213 195.298C282.465 196.064 282.591 196.988 282.591 198.07ZM277.705 198.07C277.705 198.826 277.747 199.461 277.831 199.974C277.915 200.478 278.055 200.861 278.251 201.122C278.456 201.374 278.736 201.5 279.091 201.5C279.446 201.5 279.721 201.374 279.917 201.122C280.122 200.87 280.267 200.492 280.351 199.988C280.444 199.475 280.491 198.836 280.491 198.07C280.491 197.305 280.444 196.67 280.351 196.166C280.267 195.653 280.122 195.27 279.917 195.018C279.721 194.757 279.446 194.626 279.091 194.626C278.736 194.626 278.456 194.757 278.251 195.018C278.055 195.27 277.915 195.653 277.831 196.166C277.747 196.67 277.705 197.305 277.705 198.07ZM286.249 201.598C286.165 201.925 286.057 202.28 285.927 202.662C285.796 203.036 285.656 203.409 285.507 203.782C285.357 204.165 285.203 204.529 285.045 204.874H283.547C283.64 204.501 283.729 204.109 283.813 203.698C283.897 203.297 283.976 202.9 284.051 202.508C284.125 202.116 284.186 201.762 284.233 201.444H286.151L286.249 201.598ZM294.595 198.07C294.595 198.873 294.53 199.592 294.399 200.226C294.278 200.861 294.077 201.402 293.797 201.85C293.526 202.289 293.167 202.625 292.719 202.858C292.28 203.092 291.739 203.208 291.095 203.208C290.292 203.208 289.634 203.003 289.121 202.592C288.608 202.182 288.225 201.594 287.973 200.828C287.73 200.063 287.609 199.144 287.609 198.07C287.609 196.988 287.721 196.064 287.945 195.298C288.169 194.533 288.538 193.945 289.051 193.534C289.564 193.124 290.246 192.918 291.095 192.918C291.898 192.918 292.556 193.124 293.069 193.534C293.582 193.936 293.965 194.524 294.217 195.298C294.469 196.064 294.595 196.988 294.595 198.07ZM289.709 198.07C289.709 198.826 289.751 199.461 289.835 199.974C289.919 200.478 290.059 200.861 290.255 201.122C290.46 201.374 290.74 201.5 291.095 201.5C291.45 201.5 291.725 201.374 291.921 201.122C292.126 200.87 292.271 200.492 292.355 199.988C292.448 199.475 292.495 198.836 292.495 198.07C292.495 197.305 292.448 196.67 292.355 196.166C292.271 195.653 292.126 195.27 291.921 195.018C291.725 194.757 291.45 194.626 291.095 194.626C290.74 194.626 290.46 194.757 290.255 195.018C290.059 195.27 289.919 195.653 289.835 196.166C289.751 196.67 289.709 197.305 289.709 198.07Z" fill="#333333"/>
<path d="M101.845 59.0716H35.4399V209.589H101.845V59.0716Z" fill="#005A9C"/>
<path d="M101.845 21.9974H35.4399V59.1841H101.845V21.9974Z" fill="#0099E6"/>
<path d="M207.037 82.0314H139.84V209.474H207.037V82.0314Z" fill="#005A9C"/>
<path d="M206.908 47.4859H139.711V82.243H206.908V47.4859Z" fill="#0099E6"/>
<path d="M206.908 91.5115H139.711V210.844H206.908V91.5115Z" fill="#4BC0F2"/>
<path d="M317.305 209.44H250.922V210.097H317.305V209.44Z" fill="#0099E6"/>
<path d="M428.194 104.256H362.156V209.685H428.194V104.256Z" fill="#005A9C"/>
<path d="M428.194 78.7673H362.156V105.414H428.194V78.7673Z" fill="#0099E6"/>
<path d="M428.251 201.887H361.869V211.089H428.251V201.887Z" fill="#4BC0F2"/>
<path d="M393.722 74.0716H386.736V72.6016L389.242 70.0676C389.746 69.5449 390.152 69.1109 390.46 68.7656C390.768 68.4109 390.992 68.0936 391.132 67.8136C391.272 67.5243 391.342 67.2163 391.342 66.8896C391.342 66.4883 391.23 66.1896 391.006 65.9936C390.791 65.7976 390.497 65.6996 390.124 65.6996C389.741 65.6996 389.368 65.7883 389.004 65.9656C388.64 66.1429 388.257 66.3949 387.856 66.7216L386.708 65.3636C386.997 65.1116 387.301 64.8783 387.618 64.6636C387.945 64.4489 388.318 64.2763 388.738 64.1456C389.167 64.0056 389.681 63.9356 390.278 63.9356C390.931 63.9356 391.491 64.0569 391.958 64.2996C392.434 64.5329 392.798 64.8549 393.05 65.2656C393.311 65.6669 393.442 66.1243 393.442 66.6376C393.442 67.0576 393.377 67.4449 393.246 67.7996C393.125 68.1543 392.943 68.4996 392.7 68.8356C392.467 69.1623 392.177 69.5029 391.832 69.8576C391.487 70.2029 391.095 70.5809 390.656 70.9916L389.368 72.1956V72.2936H393.722V74.0716ZM397.324 72.6016C397.24 72.9283 397.132 73.2829 397.002 73.6656C396.871 74.0389 396.731 74.4123 396.582 74.7856C396.432 75.1683 396.278 75.5323 396.12 75.8776H394.622C394.715 75.5043 394.804 75.1123 394.888 74.7016C394.972 74.3003 395.051 73.9036 395.126 73.5116C395.2 73.1196 395.261 72.7649 395.308 72.4476H397.226L397.324 72.6016ZM402.38 67.6876C402.986 67.6876 403.528 67.8043 404.004 68.0376C404.48 68.2709 404.853 68.6116 405.124 69.0596C405.404 69.5076 405.544 70.0629 405.544 70.7256C405.544 71.4443 405.394 72.0649 405.096 72.5876C404.797 73.1103 404.349 73.5116 403.752 73.7916C403.164 74.0716 402.431 74.2116 401.554 74.2116C401.031 74.2116 400.536 74.1649 400.07 74.0716C399.612 73.9783 399.211 73.8429 398.866 73.6656V71.8456C399.211 72.0229 399.626 72.1769 400.112 72.3076C400.597 72.4289 401.054 72.4896 401.484 72.4896C401.904 72.4896 402.254 72.4336 402.534 72.3216C402.823 72.2096 403.042 72.0369 403.192 71.8036C403.341 71.5703 403.416 71.2716 403.416 70.9076C403.416 70.4129 403.252 70.0396 402.926 69.7876C402.599 69.5263 402.095 69.3956 401.414 69.3956C401.152 69.3956 400.882 69.4236 400.602 69.4796C400.322 69.5263 400.088 69.5729 399.902 69.6196L399.062 69.1716L399.44 64.0756H404.858V65.8676H401.288L401.106 67.8276C401.264 67.7996 401.432 67.7716 401.61 67.7436C401.796 67.7063 402.053 67.6876 402.38 67.6876Z" fill="#333333"/>
<path d="M391.657 164.44H384.811V163.138L387.359 160.562C387.863 160.049 388.274 159.61 388.591 159.246C388.918 158.873 389.156 158.527 389.305 158.21C389.464 157.893 389.543 157.547 389.543 157.174C389.543 156.717 389.412 156.376 389.151 156.152C388.89 155.919 388.544 155.802 388.115 155.802C387.695 155.802 387.303 155.891 386.939 156.068C386.575 156.236 386.197 156.479 385.805 156.796L384.839 155.634C385.119 155.391 385.418 155.172 385.735 154.976C386.052 154.771 386.412 154.607 386.813 154.486C387.214 154.365 387.681 154.304 388.213 154.304C388.857 154.304 389.408 154.421 389.865 154.654C390.332 154.878 390.691 155.191 390.943 155.592C391.195 155.993 391.321 156.46 391.321 156.992C391.321 157.403 391.26 157.785 391.139 158.14C391.018 158.485 390.84 158.826 390.607 159.162C390.374 159.498 390.089 159.839 389.753 160.184C389.417 160.529 389.039 160.903 388.619 161.304L387.037 162.83V162.914H391.657V164.44ZM395.189 162.97C395.105 163.297 394.997 163.651 394.867 164.034C394.736 164.407 394.596 164.781 394.447 165.154C394.297 165.537 394.143 165.901 393.985 166.246H392.711C392.804 165.882 392.893 165.495 392.977 165.084C393.061 164.683 393.14 164.286 393.215 163.894C393.289 163.502 393.35 163.143 393.397 162.816H395.091L395.189 162.97ZM403.551 159.428C403.551 160.24 403.49 160.963 403.369 161.598C403.248 162.233 403.047 162.774 402.767 163.222C402.496 163.661 402.142 163.997 401.703 164.23C401.274 164.463 400.746 164.58 400.121 164.58C399.337 164.58 398.693 164.375 398.189 163.964C397.685 163.553 397.312 162.965 397.069 162.2C396.826 161.425 396.705 160.501 396.705 159.428C396.705 158.355 396.817 157.435 397.041 156.67C397.265 155.905 397.624 155.317 398.119 154.906C398.623 154.495 399.29 154.29 400.121 154.29C400.905 154.29 401.549 154.495 402.053 154.906C402.557 155.307 402.93 155.895 403.173 156.67C403.425 157.435 403.551 158.355 403.551 159.428ZM398.483 159.442C398.483 160.254 398.534 160.935 398.637 161.486C398.74 162.027 398.908 162.438 399.141 162.718C399.384 162.989 399.71 163.124 400.121 163.124C400.532 163.124 400.854 162.989 401.087 162.718C401.33 162.447 401.502 162.037 401.605 161.486C401.717 160.935 401.773 160.254 401.773 159.442C401.773 158.621 401.717 157.939 401.605 157.398C401.502 156.847 401.33 156.437 401.087 156.166C400.854 155.886 400.532 155.746 400.121 155.746C399.71 155.746 399.384 155.886 399.141 156.166C398.908 156.437 398.74 156.843 398.637 157.384C398.534 157.925 398.483 158.611 398.483 159.442Z" fill="white"/>
<path d="M391.214 94.5481C391.214 95.3601 391.153 96.0834 391.032 96.7181C390.911 97.3528 390.71 97.8941 390.43 98.3421C390.159 98.7808 389.805 99.1168 389.366 99.3501C388.937 99.5834 388.409 99.7001 387.784 99.7001C387 99.7001 386.356 99.4948 385.852 99.0841C385.348 98.6734 384.975 98.0854 384.732 97.3201C384.489 96.5454 384.368 95.6214 384.368 94.5481C384.368 93.4748 384.48 92.5554 384.704 91.7901C384.928 91.0248 385.287 90.4368 385.782 90.0261C386.286 89.6154 386.953 89.4101 387.784 89.4101C388.568 89.4101 389.212 89.6154 389.716 90.0261C390.22 90.4274 390.593 91.0154 390.836 91.7901C391.088 92.5554 391.214 93.4748 391.214 94.5481ZM386.146 94.5621C386.146 95.3741 386.197 96.0554 386.3 96.6061C386.403 97.1474 386.571 97.5581 386.804 97.8381C387.047 98.1088 387.373 98.2441 387.784 98.2441C388.195 98.2441 388.517 98.1088 388.75 97.8381C388.993 97.5674 389.165 97.1568 389.268 96.6061C389.38 96.0554 389.436 95.3741 389.436 94.5621C389.436 93.7408 389.38 93.0594 389.268 92.5181C389.165 91.9674 388.993 91.5568 388.75 91.2861C388.517 91.0061 388.195 90.8661 387.784 90.8661C387.373 90.8661 387.047 91.0061 386.804 91.2861C386.571 91.5568 386.403 91.9628 386.3 92.5041C386.197 93.0454 386.146 93.7314 386.146 94.5621ZM394.774 98.0901C394.69 98.4168 394.582 98.7714 394.452 99.1541C394.321 99.5274 394.181 99.9008 394.032 100.274C393.882 100.657 393.728 101.021 393.57 101.366H392.296C392.389 101.002 392.478 100.615 392.562 100.204C392.646 99.8028 392.725 99.4061 392.8 99.0141C392.874 98.6221 392.935 98.2628 392.982 97.9361H394.676L394.774 98.0901ZM399.79 93.2741C400.424 93.2741 400.984 93.3908 401.47 93.6241C401.955 93.8574 402.333 94.1981 402.604 94.6461C402.884 95.0848 403.024 95.6261 403.024 96.2701C403.024 96.9794 402.874 97.5908 402.576 98.1041C402.277 98.6174 401.838 99.0141 401.26 99.2941C400.681 99.5648 399.972 99.7001 399.132 99.7001C398.609 99.7001 398.119 99.6534 397.662 99.5601C397.204 99.4668 396.808 99.3314 396.472 99.1541V97.5861C396.817 97.7728 397.232 97.9268 397.718 98.0481C398.203 98.1694 398.66 98.2301 399.09 98.2301C399.538 98.2301 399.92 98.1694 400.238 98.0481C400.555 97.9174 400.798 97.7214 400.966 97.4601C401.134 97.1894 401.218 96.8488 401.218 96.4381C401.218 95.8781 401.04 95.4534 400.686 95.1641C400.331 94.8748 399.78 94.7301 399.034 94.7301C398.772 94.7301 398.488 94.7534 398.18 94.8001C397.881 94.8468 397.634 94.8934 397.438 94.9401L396.682 94.5201L397.06 89.5641H402.324V91.1041H398.614L398.404 93.4141C398.562 93.3861 398.749 93.3581 398.964 93.3301C399.188 93.2928 399.463 93.2741 399.79 93.2741Z" fill="white"/>
<path d="M64.9164 141.269H58.0704V139.967L60.6184 137.391C61.1224 136.877 61.5331 136.439 61.8504 136.075C62.1771 135.701 62.4151 135.356 62.5644 135.039C62.7231 134.721 62.8024 134.376 62.8024 134.003C62.8024 133.545 62.6717 133.205 62.4104 132.981C62.1491 132.747 61.8037 132.631 61.3744 132.631C60.9544 132.631 60.5624 132.719 60.1984 132.897C59.8344 133.065 59.4564 133.307 59.0644 133.625L58.0984 132.463C58.3784 132.22 58.6771 132.001 58.9944 131.805C59.3117 131.599 59.6711 131.436 60.0724 131.315C60.4737 131.193 60.9404 131.133 61.4724 131.133C62.1164 131.133 62.6671 131.249 63.1244 131.483C63.5911 131.707 63.9504 132.019 64.2024 132.421C64.4544 132.822 64.5804 133.289 64.5804 133.821C64.5804 134.231 64.5197 134.614 64.3984 134.969C64.2771 135.314 64.0997 135.655 63.8664 135.991C63.6331 136.327 63.3484 136.667 63.0124 137.013C62.6764 137.358 62.2984 137.731 61.8784 138.133L60.2964 139.659V139.743H64.9164V141.269ZM68.4481 139.799C68.3641 140.125 68.2568 140.48 68.1261 140.863C67.9954 141.236 67.8554 141.609 67.7061 141.983C67.5568 142.365 67.4028 142.729 67.2441 143.075H65.9701C66.0634 142.711 66.1521 142.323 66.2361 141.913C66.3201 141.511 66.3994 141.115 66.4741 140.723C66.5488 140.331 66.6094 139.971 66.6561 139.645H68.3501L68.4481 139.799ZM69.9923 137.013C69.9923 136.434 70.0296 135.865 70.1043 135.305C70.1883 134.745 70.3329 134.217 70.5383 133.723C70.7436 133.219 71.0283 132.775 71.3923 132.393C71.7656 132.001 72.2323 131.697 72.7923 131.483C73.3523 131.259 74.0336 131.147 74.8363 131.147C75.0323 131.147 75.2563 131.156 75.5083 131.175C75.7603 131.193 75.9703 131.221 76.1383 131.259V132.715C75.9609 132.659 75.7649 132.621 75.5503 132.603C75.3449 132.575 75.1396 132.561 74.9343 132.561C74.2996 132.561 73.7723 132.649 73.3523 132.827C72.9416 132.995 72.6149 133.237 72.3723 133.555C72.1389 133.872 71.9663 134.241 71.8543 134.661C71.7516 135.071 71.6863 135.529 71.6583 136.033H71.7423C71.8823 135.809 72.0503 135.608 72.2463 135.431C72.4516 135.253 72.6989 135.113 72.9883 135.011C73.2776 134.908 73.6136 134.857 73.9963 134.857C74.5749 134.857 75.0789 134.983 75.5083 135.235C75.9376 135.477 76.2689 135.832 76.5023 136.299C76.7449 136.756 76.8663 137.316 76.8663 137.979C76.8663 138.688 76.7309 139.299 76.4603 139.813C76.1896 140.326 75.8069 140.723 75.3123 141.003C74.8176 141.273 74.2296 141.409 73.5483 141.409C73.0443 141.409 72.5776 141.32 72.1483 141.143C71.7189 140.965 71.3409 140.699 71.0143 140.345C70.6876 139.981 70.4356 139.523 70.2583 138.973C70.0809 138.413 69.9923 137.759 69.9923 137.013ZM73.5063 139.967C73.9916 139.967 74.3836 139.808 74.6823 139.491C74.9809 139.164 75.1303 138.665 75.1303 137.993C75.1303 137.451 74.9996 137.027 74.7383 136.719C74.4769 136.401 74.0849 136.243 73.5623 136.243C73.1983 136.243 72.8809 136.322 72.6103 136.481C72.3489 136.63 72.1436 136.826 71.9943 137.069C71.8449 137.302 71.7703 137.545 71.7703 137.797C71.7703 138.058 71.8029 138.315 71.8683 138.567C71.9429 138.819 72.0549 139.052 72.2043 139.267C72.3536 139.481 72.5356 139.654 72.7503 139.785C72.9743 139.906 73.2263 139.967 73.5063 139.967Z" fill="white"/>
<path d="M170.199 157.488H163.353V156.186L165.901 153.61C166.405 153.097 166.816 152.658 167.133 152.294C167.46 151.921 167.698 151.576 167.847 151.258C168.006 150.941 168.085 150.596 168.085 150.222C168.085 149.765 167.954 149.424 167.693 149.2C167.432 148.967 167.086 148.85 166.657 148.85C166.237 148.85 165.845 148.939 165.481 149.116C165.117 149.284 164.739 149.527 164.347 149.844L163.381 148.682C163.661 148.44 163.96 148.22 164.277 148.024C164.594 147.819 164.954 147.656 165.355 147.534C165.756 147.413 166.223 147.352 166.755 147.352C167.399 147.352 167.95 147.469 168.407 147.702C168.874 147.926 169.233 148.239 169.485 148.64C169.737 149.042 169.863 149.508 169.863 150.04C169.863 150.451 169.802 150.834 169.681 151.188C169.56 151.534 169.382 151.874 169.149 152.21C168.916 152.546 168.631 152.887 168.295 153.232C167.959 153.578 167.581 153.951 167.161 154.352L165.579 155.878V155.962H170.199V157.488ZM173.731 156.018C173.647 156.345 173.539 156.7 173.409 157.082C173.278 157.456 173.138 157.829 172.989 158.202C172.839 158.585 172.685 158.949 172.527 159.294H171.253C171.346 158.93 171.435 158.543 171.519 158.132C171.603 157.731 171.682 157.334 171.757 156.942C171.831 156.55 171.892 156.191 171.939 155.864H173.633L173.731 156.018ZM182.429 155.346H181.127V157.488H179.391V155.346H174.939V154.03L179.433 147.464H181.127V153.904H182.429V155.346ZM179.391 151.664C179.391 151.468 179.391 151.268 179.391 151.062C179.4 150.848 179.41 150.638 179.419 150.432C179.428 150.227 179.438 150.04 179.447 149.872C179.456 149.704 179.466 149.574 179.475 149.48H179.419C179.335 149.658 179.242 149.844 179.139 150.04C179.046 150.227 178.938 150.404 178.817 150.572L176.549 153.904H179.391V151.664Z" fill="white"/>
<path d="M62.527 47.4246H60.763V41.1946C60.763 40.9892 60.763 40.7792 60.763 40.5646C60.7723 40.3499 60.7816 40.1352 60.791 39.9206C60.8003 39.6966 60.8096 39.4912 60.819 39.3046C60.7256 39.3979 60.609 39.5099 60.469 39.6406C60.329 39.7619 60.1843 39.8879 60.035 40.0186L58.915 40.9146L58.033 39.8226L61.057 37.4286H62.527V47.4246ZM68.0327 45.9546C67.9487 46.2812 67.8414 46.6359 67.7107 47.0186C67.58 47.3919 67.44 47.7652 67.2907 48.1386C67.1414 48.5212 66.9874 48.8852 66.8287 49.2306H65.5547C65.648 48.8666 65.7367 48.4792 65.8207 48.0686C65.9047 47.6672 65.984 47.2706 66.0587 46.8786C66.1334 46.4866 66.194 46.1272 66.2407 45.8006H67.9347L68.0327 45.9546ZM73.0489 41.1386C73.6835 41.1386 74.2435 41.2552 74.7289 41.4886C75.2142 41.7219 75.5922 42.0626 75.8629 42.5106C76.1429 42.9492 76.2829 43.4906 76.2829 44.1346C76.2829 44.8439 76.1335 45.4552 75.8349 45.9686C75.5362 46.4819 75.0975 46.8786 74.5189 47.1586C73.9402 47.4292 73.2309 47.5646 72.3909 47.5646C71.8682 47.5646 71.3782 47.5179 70.9209 47.4246C70.4635 47.3312 70.0669 47.1959 69.7309 47.0186V45.4506C70.0762 45.6372 70.4915 45.7912 70.9769 45.9126C71.4622 46.0339 71.9195 46.0946 72.3489 46.0946C72.7969 46.0946 73.1795 46.0339 73.4969 45.9126C73.8142 45.7819 74.0569 45.5859 74.2249 45.3246C74.3929 45.0539 74.4769 44.7132 74.4769 44.3026C74.4769 43.7426 74.2995 43.3179 73.9449 43.0286C73.5902 42.7392 73.0395 42.5946 72.2929 42.5946C72.0315 42.5946 71.7469 42.6179 71.4389 42.6646C71.1402 42.7112 70.8929 42.7579 70.6969 42.8046L69.9409 42.3846L70.3189 37.4286H75.5829V38.9686H71.8729L71.6629 41.2786C71.8215 41.2506 72.0082 41.2226 72.2229 41.1946C72.4469 41.1572 72.7222 41.1386 73.0489 41.1386Z" fill="white"/>
<path d="M169.756 66.7425C169.756 67.5545 169.695 68.2778 169.574 68.9125C169.452 69.5471 169.252 70.0885 168.972 70.5365C168.701 70.9751 168.346 71.3111 167.908 71.5445C167.478 71.7778 166.951 71.8945 166.326 71.8945C165.542 71.8945 164.898 71.6891 164.394 71.2785C163.89 70.8678 163.516 70.2798 163.274 69.5145C163.031 68.7398 162.91 67.8158 162.91 66.7425C162.91 65.6691 163.022 64.7498 163.246 63.9845C163.47 63.2191 163.829 62.6311 164.324 62.2205C164.828 61.8098 165.495 61.6045 166.326 61.6045C167.11 61.6045 167.754 61.8098 168.258 62.2205C168.762 62.6218 169.135 63.2098 169.378 63.9845C169.63 64.7498 169.756 65.6691 169.756 66.7425ZM164.688 66.7565C164.688 67.5685 164.739 68.2498 164.842 68.8005C164.944 69.3418 165.112 69.7525 165.346 70.0325C165.588 70.3031 165.915 70.4385 166.326 70.4385C166.736 70.4385 167.058 70.3031 167.292 70.0325C167.534 69.7618 167.707 69.3511 167.81 68.8005C167.922 68.2498 167.978 67.5685 167.978 66.7565C167.978 65.9351 167.922 65.2538 167.81 64.7125C167.707 64.1618 167.534 63.7511 167.292 63.4805C167.058 63.2005 166.736 63.0605 166.326 63.0605C165.915 63.0605 165.588 63.2005 165.346 63.4805C165.112 63.7511 164.944 64.1571 164.842 64.6985C164.739 65.2398 164.688 65.9258 164.688 66.7565ZM173.316 70.2845C173.232 70.6111 173.124 70.9658 172.994 71.3485C172.863 71.7218 172.723 72.0951 172.574 72.4685C172.424 72.8511 172.27 73.2151 172.112 73.5605H170.838C170.931 73.1965 171.02 72.8091 171.104 72.3985C171.188 71.9971 171.267 71.6005 171.342 71.2085C171.416 70.8165 171.477 70.4571 171.524 70.1305H173.218L173.316 70.2845ZM178.332 65.4685C178.966 65.4685 179.526 65.5851 180.012 65.8185C180.497 66.0518 180.875 66.3925 181.146 66.8405C181.426 67.2791 181.566 67.8205 181.566 68.4645C181.566 69.1738 181.416 69.7851 181.118 70.2985C180.819 70.8118 180.38 71.2085 179.802 71.4885C179.223 71.7591 178.514 71.8945 177.674 71.8945C177.151 71.8945 176.661 71.8478 176.204 71.7545C175.746 71.6611 175.35 71.5258 175.014 71.3485V69.7805C175.359 69.9671 175.774 70.1211 176.26 70.2425C176.745 70.3638 177.202 70.4245 177.632 70.4245C178.08 70.4245 178.462 70.3638 178.78 70.2425C179.097 70.1118 179.34 69.9158 179.508 69.6545C179.676 69.3838 179.76 69.0431 179.76 68.6325C179.76 68.0725 179.582 67.6478 179.228 67.3585C178.873 67.0691 178.322 66.9245 177.576 66.9245C177.314 66.9245 177.03 66.9478 176.722 66.9945C176.423 67.0411 176.176 67.0878 175.98 67.1345L175.224 66.7145L175.602 61.7585H180.866V63.2985H177.156L176.946 65.6085C177.104 65.5805 177.291 65.5525 177.506 65.5245C177.73 65.4871 178.005 65.4685 178.332 65.4685Z" fill="white"/>
<path d="M3 210.54L457.159 211.781" stroke="#61748F" stroke-opacity="0.5" stroke-width="2" stroke-miterlimit="10" stroke-linecap="round" stroke-linejoin="round"/>
</g>
<defs>
<clipPath id="clip0_540_3256">
<rect width="459" height="230" fill="white"/>
</clipPath>
</defs>
</svg>
