<svg width="460" height="230" viewBox="0 0 460 230" fill="none" xmlns="http://www.w3.org/2000/svg">
<path d="M280 35H268C266.895 35 266 35.8954 266 37V49C266 50.1046 266.895 51 268 51H280C281.105 51 282 50.1046 282 49V37C282 35.8954 281.105 35 280 35Z" fill="#005A9C"/>
<path d="M296.004 37.004C297.311 37.004 298.263 37.2607 298.86 37.774C299.457 38.2873 299.756 39.0107 299.756 39.944C299.756 40.3547 299.686 40.7513 299.546 41.134C299.415 41.5073 299.196 41.8433 298.888 42.142C298.58 42.4407 298.169 42.6787 297.656 42.856C297.143 43.024 296.513 43.108 295.766 43.108H294.618V47H293.358V37.004H296.004ZM295.892 38.082H294.618V42.03H295.626C296.261 42.03 296.788 41.9647 297.208 41.834C297.628 41.694 297.941 41.4747 298.146 41.176C298.351 40.8773 298.454 40.4853 298.454 40C298.454 39.356 298.249 38.8753 297.838 38.558C297.427 38.2407 296.779 38.082 295.892 38.082ZM304.509 39.37C305.423 39.37 306.1 39.5707 306.539 39.972C306.977 40.3733 307.197 41.0127 307.197 41.89V47H306.301L306.063 45.936H306.007C305.792 46.2067 305.568 46.4353 305.335 46.622C305.111 46.7993 304.849 46.93 304.551 47.014C304.261 47.098 303.907 47.14 303.487 47.14C303.039 47.14 302.633 47.0607 302.269 46.902C301.914 46.7433 301.634 46.5007 301.429 46.174C301.223 45.838 301.121 45.418 301.121 44.914C301.121 44.1673 301.415 43.5933 302.003 43.192C302.591 42.7813 303.496 42.5573 304.719 42.52L305.993 42.478V42.03C305.993 41.4047 305.857 40.9707 305.587 40.728C305.316 40.4853 304.933 40.364 304.439 40.364C304.047 40.364 303.673 40.4247 303.319 40.546C302.964 40.658 302.633 40.7887 302.325 40.938L301.947 40.014C302.273 39.8367 302.661 39.6873 303.109 39.566C303.557 39.4353 304.023 39.37 304.509 39.37ZM304.873 43.374C303.939 43.4113 303.291 43.5607 302.927 43.822C302.572 44.0833 302.395 44.452 302.395 44.928C302.395 45.348 302.521 45.656 302.773 45.852C303.034 46.048 303.365 46.146 303.767 46.146C304.401 46.146 304.929 45.9733 305.349 45.628C305.769 45.2733 305.979 44.732 305.979 44.004V43.332L304.873 43.374ZM311.488 39.356C312.058 39.356 312.552 39.4353 312.972 39.594C313.392 39.7433 313.719 39.9673 313.952 40.266C314.186 40.5553 314.302 40.91 314.302 41.33C314.302 41.7873 314.176 42.1513 313.924 42.422C313.672 42.6833 313.327 42.8747 312.888 42.996V43.052C313.187 43.136 313.462 43.2527 313.714 43.402C313.966 43.5513 314.167 43.7473 314.316 43.99C314.475 44.2327 314.554 44.5453 314.554 44.928C314.554 45.3387 314.438 45.712 314.204 46.048C313.98 46.384 313.63 46.65 313.154 46.846C312.688 47.042 312.086 47.14 311.348 47.14C310.994 47.14 310.653 47.1213 310.326 47.084C310.009 47.0467 309.72 46.9907 309.458 46.916C309.206 46.8413 308.982 46.7527 308.786 46.65V45.544C309.104 45.6933 309.477 45.8287 309.906 45.95C310.345 46.0713 310.821 46.132 311.334 46.132C311.708 46.132 312.044 46.09 312.342 46.006C312.65 45.922 312.893 45.7913 313.07 45.614C313.248 45.4273 313.336 45.1753 313.336 44.858C313.336 44.5687 313.257 44.3353 313.098 44.158C312.94 43.9713 312.702 43.8313 312.384 43.738C312.076 43.6447 311.68 43.598 311.194 43.598H310.186V42.59H310.998C311.642 42.59 312.156 42.506 312.538 42.338C312.93 42.1607 313.126 41.862 313.126 41.442C313.126 41.0873 312.977 40.8213 312.678 40.644C312.389 40.4667 311.969 40.378 311.418 40.378C311.008 40.378 310.644 40.42 310.326 40.504C310.018 40.5787 309.678 40.6953 309.304 40.854L308.87 39.874C309.272 39.6967 309.692 39.566 310.13 39.482C310.569 39.398 311.022 39.356 311.488 39.356ZM319.948 39.356C320.872 39.356 321.614 39.678 322.174 40.322C322.743 40.966 323.028 41.9367 323.028 43.234C323.028 44.0833 322.897 44.802 322.636 45.39C322.383 45.9687 322.024 46.4073 321.558 46.706C321.1 46.9953 320.559 47.14 319.934 47.14C319.551 47.14 319.21 47.0887 318.912 46.986C318.613 46.8833 318.356 46.7527 318.142 46.594C317.936 46.426 317.759 46.244 317.61 46.048H317.526C317.544 46.2067 317.563 46.4073 317.582 46.65C317.6 46.8927 317.61 47.1027 317.61 47.28V50.36H316.378V39.496H317.386L317.554 40.518H317.61C317.759 40.3033 317.936 40.1073 318.142 39.93C318.356 39.7527 318.608 39.6127 318.898 39.51C319.196 39.4073 319.546 39.356 319.948 39.356ZM319.724 40.392C319.22 40.392 318.814 40.49 318.506 40.686C318.198 40.8727 317.974 41.1573 317.834 41.54C317.694 41.9227 317.619 42.408 317.61 42.996V43.234C317.61 43.85 317.675 44.3727 317.806 44.802C317.936 45.2313 318.156 45.558 318.464 45.782C318.781 46.006 319.21 46.118 319.752 46.118C320.209 46.118 320.582 45.992 320.872 45.74C321.17 45.488 321.39 45.1473 321.53 44.718C321.679 44.2793 321.754 43.78 321.754 43.22C321.754 42.3613 321.586 41.6753 321.25 41.162C320.923 40.6487 320.414 40.392 319.724 40.392ZM327.833 39.37C328.747 39.37 329.424 39.5707 329.863 39.972C330.301 40.3733 330.521 41.0127 330.521 41.89V47H329.625L329.387 45.936H329.331C329.116 46.2067 328.892 46.4353 328.659 46.622C328.435 46.7993 328.173 46.93 327.875 47.014C327.585 47.098 327.231 47.14 326.811 47.14C326.363 47.14 325.957 47.0607 325.593 46.902C325.238 46.7433 324.958 46.5007 324.753 46.174C324.547 45.838 324.445 45.418 324.445 44.914C324.445 44.1673 324.739 43.5933 325.327 43.192C325.915 42.7813 326.82 42.5573 328.043 42.52L329.317 42.478V42.03C329.317 41.4047 329.181 40.9707 328.911 40.728C328.64 40.4853 328.257 40.364 327.763 40.364C327.371 40.364 326.997 40.4247 326.643 40.546C326.288 40.658 325.957 40.7887 325.649 40.938L325.271 40.014C325.597 39.8367 325.985 39.6873 326.433 39.566C326.881 39.4353 327.347 39.37 327.833 39.37ZM328.197 43.374C327.263 43.4113 326.615 43.5607 326.251 43.822C325.896 44.0833 325.719 44.452 325.719 44.928C325.719 45.348 325.845 45.656 326.097 45.852C326.358 46.048 326.689 46.146 327.091 46.146C327.725 46.146 328.253 45.9733 328.673 45.628C329.093 45.2733 329.303 44.732 329.303 44.004V43.332L328.197 43.374ZM332.446 42.492C332.446 41.4 332.554 40.4713 332.768 39.706C332.992 38.9313 333.333 38.3153 333.79 37.858C334.257 37.3913 334.854 37.0787 335.582 36.92C336.189 36.7893 336.782 36.6727 337.36 36.57C337.939 36.4673 338.48 36.374 338.984 36.29L339.194 37.368C338.952 37.4053 338.681 37.452 338.382 37.508C338.084 37.5547 337.78 37.606 337.472 37.662C337.164 37.7087 336.866 37.76 336.576 37.816C336.296 37.8627 336.049 37.9093 335.834 37.956C335.526 38.0213 335.251 38.1333 335.008 38.292C334.766 38.4413 334.556 38.6467 334.378 38.908C334.21 39.1693 334.075 39.4913 333.972 39.874C333.87 40.2567 333.809 40.7093 333.79 41.232H333.874C334.005 41.0547 334.182 40.8727 334.406 40.686C334.64 40.4993 334.915 40.3407 335.232 40.21C335.559 40.0793 335.928 40.014 336.338 40.014C336.992 40.014 337.533 40.1587 337.962 40.448C338.401 40.728 338.728 41.12 338.942 41.624C339.166 42.128 339.278 42.716 339.278 43.388C339.278 44.2187 339.134 44.914 338.844 45.474C338.555 46.034 338.154 46.454 337.64 46.734C337.127 47.0047 336.53 47.14 335.848 47.14C335.335 47.14 334.868 47.042 334.448 46.846C334.028 46.6407 333.669 46.342 333.37 45.95C333.072 45.558 332.843 45.0727 332.684 44.494C332.526 43.9153 332.446 43.248 332.446 42.492ZM335.946 46.118C336.357 46.118 336.712 46.034 337.01 45.866C337.318 45.698 337.556 45.4227 337.724 45.04C337.892 44.6573 337.976 44.1487 337.976 43.514C337.976 42.7487 337.832 42.1467 337.542 41.708C337.262 41.26 336.796 41.036 336.142 41.036C335.732 41.036 335.358 41.1293 335.022 41.316C334.686 41.4933 334.406 41.6987 334.182 41.932C333.958 42.1653 333.8 42.3613 333.706 42.52C333.706 42.9773 333.739 43.4207 333.804 43.85C333.87 44.2793 333.982 44.6667 334.14 45.012C334.308 45.348 334.537 45.6187 334.826 45.824C335.125 46.02 335.498 46.118 335.946 46.118ZM347.743 43.234C347.743 43.8593 347.659 44.4147 347.491 44.9C347.333 45.376 347.099 45.782 346.791 46.118C346.493 46.454 346.124 46.7107 345.685 46.888C345.256 47.056 344.775 47.14 344.243 47.14C343.749 47.14 343.291 47.056 342.871 46.888C342.451 46.7107 342.087 46.454 341.779 46.118C341.471 45.782 341.229 45.376 341.051 44.9C340.883 44.4147 340.799 43.8593 340.799 43.234C340.799 42.4033 340.939 41.7033 341.219 41.134C341.499 40.5553 341.901 40.1167 342.423 39.818C342.946 39.51 343.567 39.356 344.285 39.356C344.967 39.356 345.564 39.51 346.077 39.818C346.6 40.1167 347.006 40.5553 347.295 41.134C347.594 41.7033 347.743 42.4033 347.743 43.234ZM342.073 43.234C342.073 43.822 342.148 44.3353 342.297 44.774C342.456 45.2033 342.699 45.5347 343.025 45.768C343.352 46.0013 343.767 46.118 344.271 46.118C344.775 46.118 345.191 46.0013 345.517 45.768C345.844 45.5347 346.082 45.2033 346.231 44.774C346.39 44.3353 346.469 43.822 346.469 43.234C346.469 42.6367 346.39 42.128 346.231 41.708C346.073 41.288 345.83 40.966 345.503 40.742C345.186 40.5087 344.771 40.392 344.257 40.392C343.492 40.392 342.937 40.644 342.591 41.148C342.246 41.652 342.073 42.3473 342.073 43.234ZM354.739 40.532H352.289V47H351.071V40.532H348.649V39.496H354.739V40.532ZM360.655 39.496H361.999L358.793 43.108L362.265 47H360.837L357.449 43.192V47H356.217V39.496H357.449V43.136L360.655 39.496ZM366.47 39.37C367.384 39.37 368.061 39.5707 368.5 39.972C368.938 40.3733 369.158 41.0127 369.158 41.89V47H368.262L368.024 45.936H367.968C367.753 46.2067 367.529 46.4353 367.296 46.622C367.072 46.7993 366.81 46.93 366.512 47.014C366.222 47.098 365.868 47.14 365.448 47.14C365 47.14 364.594 47.0607 364.23 46.902C363.875 46.7433 363.595 46.5007 363.39 46.174C363.184 45.838 363.082 45.418 363.082 44.914C363.082 44.1673 363.376 43.5933 363.964 43.192C364.552 42.7813 365.457 42.5573 366.68 42.52L367.954 42.478V42.03C367.954 41.4047 367.818 40.9707 367.548 40.728C367.277 40.4853 366.894 40.364 366.4 40.364C366.008 40.364 365.634 40.4247 365.28 40.546C364.925 40.658 364.594 40.7887 364.285 40.938L363.908 40.014C364.234 39.8367 364.622 39.6873 365.07 39.566C365.518 39.4353 365.984 39.37 366.47 39.37ZM366.834 43.374C365.9 43.4113 365.252 43.5607 364.888 43.822C364.533 44.0833 364.356 44.452 364.356 44.928C364.356 45.348 364.482 45.656 364.734 45.852C364.995 46.048 365.326 46.146 365.728 46.146C366.362 46.146 366.89 45.9733 367.31 45.628C367.73 45.2733 367.94 44.732 367.94 44.004V43.332L366.834 43.374ZM375.28 47V37.004H382.784V47H381.538V38.11H376.54V47H375.28ZM392.254 37.004V45.88H393.528V49.632H392.324V47H385.45V49.632H384.246V45.88H385.016C385.352 45.3013 385.669 44.6527 385.968 43.934C386.276 43.2153 386.547 42.464 386.78 41.68C387.013 40.8867 387.205 40.0933 387.354 39.3C387.503 38.5067 387.597 37.7413 387.634 37.004H392.254ZM388.74 38.138C388.703 38.6793 388.609 39.2907 388.46 39.972C388.32 40.6533 388.138 41.3533 387.914 42.072C387.699 42.7813 387.457 43.4673 387.186 44.13C386.925 44.7927 386.645 45.376 386.346 45.88H391.008V38.138H388.74ZM399.901 39.496V42.618H403.975V39.496H405.207V47H403.975V43.654H399.901V47H398.669V39.496H399.901ZM410.425 39.37C411.339 39.37 412.016 39.5707 412.455 39.972C412.893 40.3733 413.113 41.0127 413.113 41.89V47H412.217L411.979 45.936H411.923C411.708 46.2067 411.484 46.4353 411.251 46.622C411.027 46.7993 410.765 46.93 410.467 47.014C410.177 47.098 409.823 47.14 409.403 47.14C408.955 47.14 408.549 47.0607 408.185 46.902C407.83 46.7433 407.55 46.5007 407.345 46.174C407.139 45.838 407.037 45.418 407.037 44.914C407.037 44.1673 407.331 43.5933 407.919 43.192C408.507 42.7813 409.412 42.5573 410.635 42.52L411.909 42.478V42.03C411.909 41.4047 411.773 40.9707 411.503 40.728C411.232 40.4853 410.849 40.364 410.355 40.364C409.963 40.364 409.589 40.4247 409.235 40.546C408.88 40.658 408.549 40.7887 408.241 40.938L407.863 40.014C408.189 39.8367 408.577 39.6873 409.025 39.566C409.473 39.4353 409.939 39.37 410.425 39.37ZM410.789 43.374C409.855 43.4113 409.207 43.5607 408.843 43.822C408.488 44.0833 408.311 44.452 408.311 44.928C408.311 45.348 408.437 45.656 408.689 45.852C408.95 46.048 409.281 46.146 409.683 46.146C410.317 46.146 410.845 45.9733 411.265 45.628C411.685 45.2733 411.895 44.732 411.895 44.004V43.332L410.789 43.374ZM427.957 41.988C427.957 42.7627 427.859 43.4673 427.663 44.102C427.467 44.7273 427.173 45.2687 426.781 45.726C426.398 46.1833 425.918 46.5333 425.339 46.776C424.77 47.0187 424.107 47.14 423.351 47.14C422.567 47.14 421.886 47.0187 421.307 46.776C420.728 46.524 420.248 46.174 419.865 45.726C419.482 45.2687 419.198 44.7227 419.011 44.088C418.824 43.4533 418.731 42.7487 418.731 41.974C418.731 40.9473 418.899 40.0513 419.235 39.286C419.571 38.5207 420.08 37.9233 420.761 37.494C421.452 37.0647 422.32 36.85 423.365 36.85C424.364 36.85 425.204 37.0647 425.885 37.494C426.566 37.914 427.08 38.5113 427.425 39.286C427.78 40.0513 427.957 40.952 427.957 41.988ZM420.061 41.988C420.061 42.828 420.178 43.5513 420.411 44.158C420.644 44.7647 421.004 45.2313 421.489 45.558C421.984 45.8847 422.604 46.048 423.351 46.048C424.107 46.048 424.723 45.8847 425.199 45.558C425.684 45.2313 426.044 44.7647 426.277 44.158C426.51 43.5513 426.627 42.828 426.627 41.988C426.627 40.728 426.366 39.7433 425.843 39.034C425.32 38.3153 424.494 37.956 423.365 37.956C422.609 37.956 421.984 38.1193 421.489 38.446C421.004 38.7633 420.644 39.2253 420.411 39.832C420.178 40.4293 420.061 41.148 420.061 41.988ZM430.172 47V37.004H437.676V47H436.43V38.11H431.432V47H430.172ZM443.059 37.004C444.365 37.004 445.317 37.2607 445.915 37.774C446.512 38.2873 446.811 39.0107 446.811 39.944C446.811 40.3547 446.741 40.7513 446.601 41.134C446.47 41.5073 446.251 41.8433 445.943 42.142C445.635 42.4407 445.224 42.6787 444.711 42.856C444.197 43.024 443.567 43.108 442.821 43.108H441.673V47H440.413V37.004H443.059ZM442.947 38.082H441.673V42.03H442.681C443.315 42.03 443.843 41.9647 444.263 41.834C444.683 41.694 444.995 41.4747 445.201 41.176C445.406 40.8773 445.509 40.4853 445.509 40C445.509 39.356 445.303 38.8753 444.893 38.558C444.482 38.2407 443.833 38.082 442.947 38.082Z" fill="#333333"/>
<path d="M280 61H268C266.895 61 266 61.8954 266 63V75C266 76.1046 266.895 77 268 77H280C281.105 77 282 76.1046 282 75V63C282 61.8954 281.105 61 280 61Z" fill="#007AC2"/>
<path d="M302.08 67.988C302.08 68.7627 301.982 69.4673 301.786 70.102C301.59 70.7273 301.296 71.2687 300.904 71.726C300.521 72.1833 300.041 72.5333 299.462 72.776C298.893 73.0187 298.23 73.14 297.474 73.14C296.69 73.14 296.009 73.0187 295.43 72.776C294.851 72.524 294.371 72.174 293.988 71.726C293.605 71.2687 293.321 70.7227 293.134 70.088C292.947 69.4533 292.854 68.7487 292.854 67.974C292.854 66.9473 293.022 66.0513 293.358 65.286C293.694 64.5207 294.203 63.9233 294.884 63.494C295.575 63.0647 296.443 62.85 297.488 62.85C298.487 62.85 299.327 63.0647 300.008 63.494C300.689 63.914 301.203 64.5113 301.548 65.286C301.903 66.0513 302.08 66.952 302.08 67.988ZM294.184 67.988C294.184 68.828 294.301 69.5513 294.534 70.158C294.767 70.7647 295.127 71.2313 295.612 71.558C296.107 71.8847 296.727 72.048 297.474 72.048C298.23 72.048 298.846 71.8847 299.322 71.558C299.807 71.2313 300.167 70.7647 300.4 70.158C300.633 69.5513 300.75 68.828 300.75 67.988C300.75 66.728 300.489 65.7433 299.966 65.034C299.443 64.3153 298.617 63.956 297.488 63.956C296.732 63.956 296.107 64.1193 295.612 64.446C295.127 64.7633 294.767 65.2253 294.534 65.832C294.301 66.4293 294.184 67.148 294.184 67.988ZM304.296 73V63.004H311.8V73H310.554V64.11H305.556V73H304.296ZM317.182 63.004C318.488 63.004 319.44 63.2607 320.038 63.774C320.635 64.2873 320.934 65.0107 320.934 65.944C320.934 66.3547 320.864 66.7513 320.724 67.134C320.593 67.5073 320.374 67.8433 320.066 68.142C319.758 68.4407 319.347 68.6787 318.834 68.856C318.32 69.024 317.69 69.108 316.944 69.108H315.796V73H314.536V63.004H317.182ZM317.07 64.082H315.796V68.03H316.804C317.438 68.03 317.966 67.9647 318.386 67.834C318.806 67.694 319.118 67.4747 319.324 67.176C319.529 66.8773 319.632 66.4853 319.632 66C319.632 65.356 319.426 64.8753 319.016 64.558C318.605 64.2407 317.956 64.082 317.07 64.082Z" fill="#333333"/>
<path d="M280 87H268C266.895 87 266 87.8954 266 89V101C266 102.105 266.895 103 268 103H280C281.105 103 282 102.105 282 101V89C282 87.8954 281.105 87 280 87Z" fill="#0099E6"/>
<path d="M296.522 99H295.262V90.11H292.14V89.004H299.63V90.11H296.522V99ZM303.027 89.97C302.561 89.97 302.136 90.026 301.753 90.138C301.371 90.2407 301.025 90.362 300.717 90.502L300.199 89.452C300.582 89.2653 301.021 89.1207 301.515 89.018C302.01 88.9153 302.519 88.864 303.041 88.864C303.844 88.864 304.539 88.99 305.127 89.242C305.725 89.4847 306.219 89.83 306.611 90.278C307.003 90.726 307.293 91.2533 307.479 91.86C307.675 92.4573 307.773 93.1153 307.773 93.834C307.773 94.926 307.596 95.8687 307.241 96.662C306.887 97.4553 306.35 98.0667 305.631 98.496C304.922 98.9253 304.026 99.14 302.943 99.14C302.365 99.14 301.875 99.1073 301.473 99.042C301.072 98.9767 300.675 98.874 300.283 98.734V97.642C300.675 97.7447 301.072 97.838 301.473 97.922C301.875 97.9967 302.299 98.034 302.747 98.034C303.354 98.034 303.881 97.9547 304.329 97.796C304.787 97.628 305.169 97.39 305.477 97.082C305.785 96.7647 306.019 96.3773 306.177 95.92C306.336 95.4533 306.425 94.9213 306.443 94.324H301.585V93.218H306.429C306.383 92.7047 306.271 92.2473 306.093 91.846C305.916 91.4447 305.678 91.104 305.379 90.824C305.09 90.544 304.745 90.334 304.343 90.194C303.951 90.0447 303.513 89.97 303.027 89.97ZM318.719 93.988C318.719 94.7627 318.621 95.4673 318.425 96.102C318.229 96.7273 317.935 97.2687 317.543 97.726C317.16 98.1833 316.679 98.5333 316.101 98.776C315.531 99.0187 314.869 99.14 314.113 99.14C313.329 99.14 312.647 99.0187 312.069 98.776C311.49 98.524 311.009 98.174 310.627 97.726C310.244 97.2687 309.959 96.7227 309.773 96.088C309.586 95.4533 309.493 94.7487 309.493 93.974C309.493 92.9473 309.661 92.0513 309.997 91.286C310.333 90.5207 310.841 89.9233 311.523 89.494C312.213 89.0647 313.081 88.85 314.127 88.85C315.125 88.85 315.965 89.0647 316.647 89.494C317.328 89.914 317.841 90.5113 318.187 91.286C318.541 92.0513 318.719 92.952 318.719 93.988ZM310.823 93.988C310.823 94.828 310.939 95.5513 311.173 96.158C311.406 96.7647 311.765 97.2313 312.251 97.558C312.745 97.8847 313.366 98.048 314.113 98.048C314.869 98.048 315.485 97.8847 315.961 97.558C316.446 97.2313 316.805 96.7647 317.039 96.158C317.272 95.5513 317.389 94.828 317.389 93.988C317.389 92.728 317.127 91.7433 316.605 91.034C316.082 90.3153 315.256 89.956 314.127 89.956C313.371 89.956 312.745 90.1193 312.251 90.446C311.765 90.7633 311.406 91.2253 311.173 91.832C310.939 92.4293 310.823 93.148 310.823 93.988Z" fill="#333333"/>
<path d="M280 113H268C266.895 113 266 113.895 266 115V127C266 128.105 266.895 129 268 129H280C281.105 129 282 128.105 282 127V115C282 113.895 281.105 113 280 113Z" fill="#4BC0F2"/>
<path d="M299 115.004V116.124H294.618V125H293.358V115.004H299ZM302.445 117.356C303.089 117.356 303.64 117.496 304.097 117.776C304.564 118.056 304.919 118.453 305.161 118.966C305.413 119.47 305.539 120.063 305.539 120.744V121.486H300.401C300.42 122.335 300.635 122.984 301.045 123.432C301.465 123.871 302.049 124.09 302.795 124.09C303.271 124.09 303.691 124.048 304.055 123.964C304.429 123.871 304.811 123.74 305.203 123.572V124.65C304.821 124.818 304.443 124.939 304.069 125.014C303.696 125.098 303.253 125.14 302.739 125.14C302.03 125.14 301.4 124.995 300.849 124.706C300.308 124.417 299.883 123.987 299.575 123.418C299.277 122.839 299.127 122.135 299.127 121.304C299.127 120.483 299.263 119.778 299.533 119.19C299.813 118.602 300.201 118.149 300.695 117.832C301.199 117.515 301.783 117.356 302.445 117.356ZM302.431 118.364C301.843 118.364 301.377 118.555 301.031 118.938C300.695 119.311 300.495 119.834 300.429 120.506H304.251C304.251 120.077 304.186 119.703 304.055 119.386C303.925 119.069 303.724 118.821 303.453 118.644C303.192 118.457 302.851 118.364 302.431 118.364ZM313.974 121.234C313.974 121.859 313.89 122.415 313.722 122.9C313.563 123.376 313.33 123.782 313.022 124.118C312.723 124.454 312.354 124.711 311.916 124.888C311.486 125.056 311.006 125.14 310.474 125.14C309.979 125.14 309.522 125.056 309.102 124.888C308.682 124.711 308.318 124.454 308.01 124.118C307.702 123.782 307.459 123.376 307.282 122.9C307.114 122.415 307.03 121.859 307.03 121.234C307.03 120.403 307.17 119.703 307.45 119.134C307.73 118.555 308.131 118.117 308.654 117.818C309.176 117.51 309.797 117.356 310.516 117.356C311.197 117.356 311.794 117.51 312.308 117.818C312.83 118.117 313.236 118.555 313.526 119.134C313.824 119.703 313.974 120.403 313.974 121.234ZM308.304 121.234C308.304 121.822 308.378 122.335 308.528 122.774C308.686 123.203 308.929 123.535 309.256 123.768C309.582 124.001 309.998 124.118 310.502 124.118C311.006 124.118 311.421 124.001 311.748 123.768C312.074 123.535 312.312 123.203 312.462 122.774C312.62 122.335 312.7 121.822 312.7 121.234C312.7 120.637 312.62 120.128 312.462 119.708C312.303 119.288 312.06 118.966 311.734 118.742C311.416 118.509 311.001 118.392 310.488 118.392C309.722 118.392 309.167 118.644 308.822 119.148C308.476 119.652 308.304 120.347 308.304 121.234ZM321.638 125H320.392V118.518H318.18C318.087 119.703 317.97 120.716 317.83 121.556C317.69 122.387 317.513 123.063 317.298 123.586C317.084 124.109 316.827 124.491 316.528 124.734C316.23 124.977 315.88 125.098 315.478 125.098C315.357 125.098 315.236 125.089 315.114 125.07C315.002 125.061 314.909 125.037 314.834 125V124.076C314.89 124.095 314.951 124.109 315.016 124.118C315.082 124.127 315.147 124.132 315.212 124.132C315.418 124.132 315.604 124.048 315.772 123.88C315.94 123.712 316.09 123.455 316.22 123.11C316.36 122.765 316.486 122.331 316.598 121.808C316.71 121.276 316.808 120.651 316.892 119.932C316.976 119.213 317.051 118.401 317.116 117.496H321.638V125ZM323.838 124.244C323.838 123.899 323.922 123.656 324.09 123.516C324.258 123.376 324.459 123.306 324.692 123.306C324.935 123.306 325.14 123.376 325.308 123.516C325.485 123.656 325.574 123.899 325.574 124.244C325.574 124.58 325.485 124.823 325.308 124.972C325.14 125.121 324.935 125.196 324.692 125.196C324.459 125.196 324.258 125.121 324.09 124.972C323.922 124.823 323.838 124.58 323.838 124.244ZM332.565 122.074C332.565 122.158 332.56 122.279 332.551 122.438C332.551 122.587 332.546 122.751 332.537 122.928C332.528 123.096 332.518 123.259 332.509 123.418C332.5 123.567 332.49 123.689 332.481 123.782L336.499 117.496H338.011V125H336.863V120.576C336.863 120.427 336.863 120.231 336.863 119.988C336.872 119.745 336.882 119.507 336.891 119.274C336.9 119.031 336.91 118.849 336.919 118.728L332.929 125H331.403V117.496H332.565V122.074ZM342.373 117.356C342.942 117.356 343.437 117.435 343.857 117.594C344.277 117.743 344.604 117.967 344.837 118.266C345.07 118.555 345.187 118.91 345.187 119.33C345.187 119.787 345.061 120.151 344.809 120.422C344.557 120.683 344.212 120.875 343.773 120.996V121.052C344.072 121.136 344.347 121.253 344.599 121.402C344.851 121.551 345.052 121.747 345.201 121.99C345.36 122.233 345.439 122.545 345.439 122.928C345.439 123.339 345.322 123.712 345.089 124.048C344.865 124.384 344.515 124.65 344.039 124.846C343.572 125.042 342.97 125.14 342.233 125.14C341.878 125.14 341.538 125.121 341.211 125.084C340.894 125.047 340.604 124.991 340.343 124.916C340.091 124.841 339.867 124.753 339.671 124.65V123.544C339.988 123.693 340.362 123.829 340.791 123.95C341.23 124.071 341.706 124.132 342.219 124.132C342.592 124.132 342.928 124.09 343.227 124.006C343.535 123.922 343.778 123.791 343.955 123.614C344.132 123.427 344.221 123.175 344.221 122.858C344.221 122.569 344.142 122.335 343.983 122.158C343.824 121.971 343.586 121.831 343.269 121.738C342.961 121.645 342.564 121.598 342.079 121.598H341.071V120.59H341.883C342.527 120.59 343.04 120.506 343.423 120.338C343.815 120.161 344.011 119.862 344.011 119.442C344.011 119.087 343.862 118.821 343.563 118.644C343.274 118.467 342.854 118.378 342.303 118.378C341.892 118.378 341.528 118.42 341.211 118.504C340.903 118.579 340.562 118.695 340.189 118.854L339.755 117.874C340.156 117.697 340.576 117.566 341.015 117.482C341.454 117.398 341.906 117.356 342.373 117.356ZM346.086 117.496H347.402L349.026 121.766C349.12 122.018 349.204 122.261 349.278 122.494C349.362 122.727 349.437 122.956 349.502 123.18C349.568 123.395 349.619 123.605 349.656 123.81H349.712C349.768 123.577 349.857 123.273 349.978 122.9C350.1 122.517 350.226 122.135 350.356 121.752L351.882 117.496H353.212L349.978 126.036C349.801 126.503 349.591 126.909 349.348 127.254C349.115 127.609 348.826 127.879 348.48 128.066C348.144 128.262 347.734 128.36 347.248 128.36C347.024 128.36 346.828 128.346 346.66 128.318C346.492 128.299 346.348 128.276 346.226 128.248V127.268C346.329 127.287 346.45 127.305 346.59 127.324C346.74 127.343 346.894 127.352 347.052 127.352C347.342 127.352 347.589 127.296 347.794 127.184C348.009 127.081 348.191 126.927 348.34 126.722C348.49 126.526 348.616 126.293 348.718 126.022L349.11 125.028L346.086 117.496ZM355.477 120.226C355.477 120.665 355.598 120.991 355.841 121.206C356.093 121.411 356.452 121.514 356.919 121.514C357.386 121.514 357.81 121.444 358.193 121.304C358.576 121.155 358.968 120.959 359.369 120.716V117.496H360.601V125H359.369V121.654C358.949 121.925 358.534 122.139 358.123 122.298C357.722 122.447 357.236 122.522 356.667 122.522C355.902 122.522 355.304 122.321 354.875 121.92C354.455 121.519 354.245 120.982 354.245 120.31V117.496H355.477V120.226ZM365.883 117.356C366.527 117.356 367.078 117.496 367.535 117.776C368.002 118.056 368.356 118.453 368.599 118.966C368.851 119.47 368.977 120.063 368.977 120.744V121.486H363.839C363.858 122.335 364.072 122.984 364.483 123.432C364.903 123.871 365.486 124.09 366.233 124.09C366.709 124.09 367.129 124.048 367.493 123.964C367.866 123.871 368.249 123.74 368.641 123.572V124.65C368.258 124.818 367.88 124.939 367.507 125.014C367.134 125.098 366.69 125.14 366.177 125.14C365.468 125.14 364.838 124.995 364.287 124.706C363.746 124.417 363.321 123.987 363.013 123.418C362.714 122.839 362.565 122.135 362.565 121.304C362.565 120.483 362.7 119.778 362.971 119.19C363.251 118.602 363.638 118.149 364.133 117.832C364.637 117.515 365.22 117.356 365.883 117.356ZM365.869 118.364C365.281 118.364 364.814 118.555 364.469 118.938C364.133 119.311 363.932 119.834 363.867 120.506H367.689C367.689 120.077 367.624 119.703 367.493 119.386C367.362 119.069 367.162 118.821 366.891 118.644C366.63 118.457 366.289 118.364 365.869 118.364ZM372.119 117.496V120.618H376.193V117.496H377.425V125H376.193V121.654H372.119V125H370.887V117.496H372.119ZM380.963 122.074C380.963 122.158 380.959 122.279 380.949 122.438C380.949 122.587 380.945 122.751 380.935 122.928C380.926 123.096 380.917 123.259 380.907 123.418C380.898 123.567 380.889 123.689 380.879 123.782L384.897 117.496H386.409V125H385.261V120.576C385.261 120.427 385.261 120.231 385.261 119.988C385.271 119.745 385.28 119.507 385.289 119.274C385.299 119.031 385.308 118.849 385.317 118.728L381.327 125H379.801V117.496H380.963V122.074ZM391.695 117.356C392.339 117.356 392.89 117.496 393.347 117.776C393.814 118.056 394.169 118.453 394.411 118.966C394.663 119.47 394.789 120.063 394.789 120.744V121.486H389.651C389.67 122.335 389.885 122.984 390.295 123.432C390.715 123.871 391.299 124.09 392.045 124.09C392.521 124.09 392.941 124.048 393.305 123.964C393.679 123.871 394.061 123.74 394.453 123.572V124.65C394.071 124.818 393.693 124.939 393.319 125.014C392.946 125.098 392.503 125.14 391.989 125.14C391.28 125.14 390.65 124.995 390.099 124.706C389.558 124.417 389.133 123.987 388.825 123.418C388.527 122.839 388.377 122.135 388.377 121.304C388.377 120.483 388.513 119.778 388.783 119.19C389.063 118.602 389.451 118.149 389.945 117.832C390.449 117.515 391.033 117.356 391.695 117.356ZM391.681 118.364C391.093 118.364 390.627 118.555 390.281 118.938C389.945 119.311 389.745 119.834 389.679 120.506H393.501C393.501 120.077 393.436 119.703 393.305 119.386C393.175 119.069 392.974 118.821 392.703 118.644C392.442 118.457 392.101 118.364 391.681 118.364Z" fill="#333333"/>
<mask id="path-9-outside-1_540_3255" maskUnits="userSpaceOnUse" x="0" y="9" width="206" height="206" fill="black">
<rect fill="white" y="9" width="206" height="206"/>
<path d="M200 112C200 165.572 156.572 209 103 209C49.4284 209 6 165.572 6 112C6 58.4284 49.4284 15 103 15C156.572 15 200 58.4284 200 112ZM51.797 112C51.797 140.279 74.7214 163.203 103 163.203C131.279 163.203 154.203 140.279 154.203 112C154.203 83.7214 131.279 60.797 103 60.797C74.7214 60.797 51.797 83.7214 51.797 112Z"/>
</mask>
<path d="M200 112C200 165.572 156.572 209 103 209C49.4284 209 6 165.572 6 112C6 58.4284 49.4284 15 103 15C156.572 15 200 58.4284 200 112ZM51.797 112C51.797 140.279 74.7214 163.203 103 163.203C131.279 163.203 154.203 140.279 154.203 112C154.203 83.7214 131.279 60.797 103 60.797C74.7214 60.797 51.797 83.7214 51.797 112Z" fill="#4BC0F2"/>
<path d="M200 112C200 165.572 156.572 209 103 209C49.4284 209 6 165.572 6 112C6 58.4284 49.4284 15 103 15C156.572 15 200 58.4284 200 112ZM51.797 112C51.797 140.279 74.7214 163.203 103 163.203C131.279 163.203 154.203 140.279 154.203 112C154.203 83.7214 131.279 60.797 103 60.797C74.7214 60.797 51.797 83.7214 51.797 112Z" stroke="white" stroke-width="10.2646" mask="url(#path-9-outside-1_540_3255)"/>
<mask id="path-10-outside-2_540_3255" maskUnits="userSpaceOnUse" x="0" y="9" width="206" height="206" fill="black">
<rect fill="white" y="9" width="206" height="206"/>
<path d="M103 15C123.221 15 142.937 21.3196 159.39 33.0751C175.843 44.8306 188.211 61.4341 194.765 80.564C201.318 99.6939 201.729 120.394 195.94 139.769C190.151 159.144 178.452 176.225 162.479 188.624C146.505 201.024 127.056 208.121 106.85 208.924C86.645 209.726 66.694 204.194 49.7871 193.101C32.8802 182.008 19.8629 165.908 12.5553 147.054C5.24781 128.199 4.01547 107.532 9.03067 87.9425L53.3968 99.3009C50.7495 109.641 51.4 120.551 55.2574 130.504C59.1148 140.456 65.9862 148.955 74.9107 154.81C83.8353 160.666 94.3668 163.586 105.032 163.163C115.698 162.739 125.965 158.993 134.397 152.447C142.829 145.902 149.004 136.885 152.06 126.658C155.116 116.431 154.899 105.504 151.439 95.406C147.98 85.308 141.452 76.5436 132.766 70.3382C124.081 64.1329 113.674 60.797 103 60.797V15Z"/>
</mask>
<path d="M103 15C123.221 15 142.937 21.3196 159.39 33.0751C175.843 44.8306 188.211 61.4341 194.765 80.564C201.318 99.6939 201.729 120.394 195.94 139.769C190.151 159.144 178.452 176.225 162.479 188.624C146.505 201.024 127.056 208.121 106.85 208.924C86.645 209.726 66.694 204.194 49.7871 193.101C32.8802 182.008 19.8629 165.908 12.5553 147.054C5.24781 128.199 4.01547 107.532 9.03067 87.9425L53.3968 99.3009C50.7495 109.641 51.4 120.551 55.2574 130.504C59.1148 140.456 65.9862 148.955 74.9107 154.81C83.8353 160.666 94.3668 163.586 105.032 163.163C115.698 162.739 125.965 158.993 134.397 152.447C142.829 145.902 149.004 136.885 152.06 126.658C155.116 116.431 154.899 105.504 151.439 95.406C147.98 85.308 141.452 76.5436 132.766 70.3382C124.081 64.1329 113.674 60.797 103 60.797V15Z" fill="#0099E6"/>
<path d="M103 15C123.221 15 142.937 21.3196 159.39 33.0751C175.843 44.8306 188.211 61.4341 194.765 80.564C201.318 99.6939 201.729 120.394 195.94 139.769C190.151 159.144 178.452 176.225 162.479 188.624C146.505 201.024 127.056 208.121 106.85 208.924C86.645 209.726 66.694 204.194 49.7871 193.101C32.8802 182.008 19.8629 165.908 12.5553 147.054C5.24781 128.199 4.01547 107.532 9.03067 87.9425L53.3968 99.3009C50.7495 109.641 51.4 120.551 55.2574 130.504C59.1148 140.456 65.9862 148.955 74.9107 154.81C83.8353 160.666 94.3668 163.586 105.032 163.163C115.698 162.739 125.965 158.993 134.397 152.447C142.829 145.902 149.004 136.885 152.06 126.658C155.116 116.431 154.899 105.504 151.439 95.406C147.98 85.308 141.452 76.5436 132.766 70.3382C124.081 64.1329 113.674 60.797 103 60.797V15Z" stroke="white" stroke-width="10.2646" mask="url(#path-10-outside-2_540_3255)"/>
<mask id="path-11-outside-3_540_3255" maskUnits="userSpaceOnUse" x="97" y="9" width="109" height="109" fill="black">
<rect fill="white" x="97" y="9" width="109" height="109"/>
<path d="M103 15C115.738 15 128.352 17.509 140.12 22.3837C151.889 27.2584 162.582 34.4034 171.589 43.4106C180.597 52.4179 187.742 63.1111 192.616 74.8797C197.491 86.6483 200 99.2618 200 112L154.203 112C154.203 105.276 152.879 98.6177 150.305 92.4055C147.732 86.1932 143.961 80.5487 139.206 75.794C134.451 71.0394 128.807 67.2678 122.595 64.6946C116.382 62.1214 109.724 60.797 103 60.797V15Z"/>
</mask>
<path d="M103 15C115.738 15 128.352 17.509 140.12 22.3837C151.889 27.2584 162.582 34.4034 171.589 43.4106C180.597 52.4179 187.742 63.1111 192.616 74.8797C197.491 86.6483 200 99.2618 200 112L154.203 112C154.203 105.276 152.879 98.6177 150.305 92.4055C147.732 86.1932 143.961 80.5487 139.206 75.794C134.451 71.0394 128.807 67.2678 122.595 64.6946C116.382 62.1214 109.724 60.797 103 60.797V15Z" fill="#007AC2"/>
<path d="M103 15C115.738 15 128.352 17.509 140.12 22.3837C151.889 27.2584 162.582 34.4034 171.589 43.4106C180.597 52.4179 187.742 63.1111 192.616 74.8797C197.491 86.6483 200 99.2618 200 112L154.203 112C154.203 105.276 152.879 98.6177 150.305 92.4055C147.732 86.1932 143.961 80.5487 139.206 75.794C134.451 71.0394 128.807 67.2678 122.595 64.6946C116.382 62.1214 109.724 60.797 103 60.797V15Z" stroke="white" stroke-width="10.2646" mask="url(#path-11-outside-3_540_3255)"/>
<mask id="path-12-outside-4_540_3255" maskUnits="userSpaceOnUse" x="97" y="9" width="106" height="95" fill="black">
<rect fill="white" x="97" y="9" width="106" height="95"/>
<path d="M103 15C123.769 15 143.99 21.6662 160.687 34.0178C177.384 46.3693 189.676 63.754 195.754 83.6138L151.961 97.0159C148.753 86.5326 142.265 77.3558 133.451 70.8358C124.637 64.3159 113.963 60.797 103 60.797V15Z"/>
</mask>
<path d="M103 15C123.769 15 143.99 21.6662 160.687 34.0178C177.384 46.3693 189.676 63.754 195.754 83.6138L151.961 97.0159C148.753 86.5326 142.265 77.3558 133.451 70.8358C124.637 64.3159 113.963 60.797 103 60.797V15Z" fill="#005A9C"/>
<path d="M103 15C123.769 15 143.99 21.6662 160.687 34.0178C177.384 46.3693 189.676 63.754 195.754 83.6138L151.961 97.0159C148.753 86.5326 142.265 77.3558 133.451 70.8358C124.637 64.3159 113.963 60.797 103 60.797V15Z" stroke="white" stroke-width="10.2646" mask="url(#path-12-outside-4_540_3255)"/>
<path d="M78.6148 98.576H81.4948V103.808C81.4948 104.043 81.4895 104.288 81.4788 104.544C81.4788 104.8 81.4735 105.056 81.4628 105.312C81.4521 105.557 81.4361 105.792 81.4148 106.016C81.4041 106.24 81.3881 106.437 81.3668 106.608H81.4308L86.1348 98.576H89.6708V110H86.7908V105.056C86.7908 104.843 86.7908 104.603 86.7908 104.336C86.8015 104.059 86.8121 103.776 86.8228 103.488C86.8441 103.2 86.8601 102.928 86.8708 102.672C86.8921 102.405 86.9135 102.171 86.9348 101.968H86.8708L82.1668 110H78.6148V98.576ZM100.162 103.424H97.2504V110H94.1944V103.424H91.2824V101.152H100.162V103.424ZM109.887 105.552C109.887 106.288 109.785 106.944 109.583 107.52C109.38 108.096 109.087 108.581 108.703 108.976C108.319 109.36 107.855 109.653 107.311 109.856C106.767 110.059 106.148 110.16 105.455 110.16C104.815 110.16 104.223 110.059 103.679 109.856C103.145 109.653 102.681 109.36 102.287 108.976C101.903 108.581 101.599 108.096 101.375 107.52C101.161 106.944 101.055 106.288 101.055 105.552C101.055 104.571 101.231 103.744 101.583 103.072C101.945 102.389 102.457 101.872 103.119 101.52C103.78 101.168 104.575 100.992 105.503 100.992C106.356 100.992 107.108 101.168 107.759 101.52C108.42 101.872 108.937 102.389 109.311 103.072C109.695 103.744 109.887 104.571 109.887 105.552ZM104.159 105.552C104.159 106.053 104.201 106.48 104.287 106.832C104.372 107.184 104.511 107.451 104.703 107.632C104.905 107.803 105.167 107.888 105.487 107.888C105.807 107.888 106.057 107.803 106.239 107.632C106.431 107.451 106.569 107.184 106.655 106.832C106.74 106.48 106.783 106.053 106.783 105.552C106.783 105.051 106.74 104.629 106.655 104.288C106.569 103.947 106.431 103.691 106.239 103.52C106.047 103.349 105.791 103.264 105.471 103.264C105.012 103.264 104.676 103.456 104.463 103.84C104.26 104.224 104.159 104.795 104.159 105.552ZM118.202 101.152V103.424H114.682V110H111.626V101.152H118.202ZM127.934 105.552C127.934 106.288 127.832 106.944 127.63 107.52C127.427 108.096 127.134 108.581 126.75 108.976C126.366 109.36 125.902 109.653 125.358 109.856C124.814 110.059 124.195 110.16 123.502 110.16C122.862 110.16 122.27 110.059 121.726 109.856C121.192 109.653 120.728 109.36 120.334 108.976C119.95 108.581 119.646 108.096 119.422 107.52C119.208 106.944 119.102 106.288 119.102 105.552C119.102 104.571 119.278 103.744 119.63 103.072C119.992 102.389 120.504 101.872 121.166 101.52C121.827 101.168 122.622 100.992 123.55 100.992C124.403 100.992 125.155 101.168 125.806 101.52C126.467 101.872 126.984 102.389 127.358 103.072C127.742 103.744 127.934 104.571 127.934 105.552ZM122.206 105.552C122.206 106.053 122.248 106.48 122.334 106.832C122.419 107.184 122.558 107.451 122.75 107.632C122.952 107.803 123.214 107.888 123.534 107.888C123.854 107.888 124.104 107.803 124.286 107.632C124.478 107.451 124.616 107.184 124.702 106.832C124.787 106.48 124.83 106.053 124.83 105.552C124.83 105.051 124.787 104.629 124.702 104.288C124.616 103.947 124.478 103.691 124.286 103.52C124.094 103.349 123.838 103.264 123.518 103.264C123.059 103.264 122.723 103.456 122.51 103.84C122.307 104.224 122.206 104.795 122.206 105.552Z" fill="#333333"/>
<path d="M100.145 122.584C100.145 123.395 100.07 124.147 99.9205 124.84C99.7818 125.523 99.5632 126.131 99.2645 126.664C98.9658 127.197 98.5818 127.651 98.1125 128.024C97.6432 128.397 97.0832 128.68 96.4325 128.872C95.7818 129.064 95.0298 129.16 94.1765 129.16C93.9418 129.16 93.6698 129.155 93.3605 129.144C93.0512 129.133 92.7898 129.112 92.5765 129.08V126.632C92.8005 126.675 93.0245 126.707 93.2485 126.728C93.4725 126.749 93.7338 126.76 94.0325 126.76C94.6725 126.76 95.2005 126.691 95.6165 126.552C96.0432 126.413 96.3792 126.216 96.6245 125.96C96.8698 125.704 97.0458 125.4 97.1525 125.048C97.2698 124.685 97.3392 124.291 97.3605 123.864H97.2645C97.1258 124.12 96.9605 124.349 96.7685 124.552C96.5765 124.744 96.3365 124.899 96.0485 125.016C95.7605 125.133 95.3978 125.192 94.9605 125.192C94.3205 125.192 93.7605 125.048 93.2805 124.76C92.8112 124.472 92.4485 124.051 92.1925 123.496C91.9365 122.931 91.8085 122.253 91.8085 121.464C91.8085 120.611 91.9685 119.885 92.2885 119.288C92.6192 118.68 93.0885 118.216 93.6965 117.896C94.3045 117.576 95.0245 117.416 95.8565 117.416C96.4538 117.416 97.0085 117.517 97.5205 117.72C98.0432 117.923 98.5018 118.232 98.8965 118.648C99.2912 119.064 99.5952 119.603 99.8085 120.264C100.033 120.915 100.145 121.688 100.145 122.584ZM95.9365 119.88C95.5738 119.88 95.2912 120.003 95.0885 120.248C94.8965 120.493 94.8005 120.888 94.8005 121.432C94.8005 121.859 94.8912 122.2 95.0725 122.456C95.2645 122.701 95.5418 122.824 95.9045 122.824C96.1392 122.824 96.3418 122.765 96.5125 122.648C96.6832 122.52 96.8165 122.36 96.9125 122.168C97.0192 121.976 97.0725 121.779 97.0725 121.576C97.0725 121.373 97.0512 121.171 97.0085 120.968C96.9658 120.765 96.8965 120.584 96.8005 120.424C96.7152 120.253 96.5978 120.12 96.4485 120.024C96.3098 119.928 96.1392 119.88 95.9365 119.88ZM101.36 127.704C101.36 127.149 101.52 126.76 101.84 126.536C102.17 126.312 102.565 126.2 103.024 126.2C103.461 126.2 103.834 126.312 104.144 126.536C104.464 126.76 104.624 127.149 104.624 127.704C104.624 128.227 104.464 128.605 104.144 128.84C103.834 129.075 103.461 129.192 103.024 129.192C102.565 129.192 102.17 129.075 101.84 128.84C101.52 128.605 101.36 128.227 101.36 127.704ZM106.945 129L110.865 120.136H105.921V117.576H114.161V119.4L110.145 129H106.945Z" fill="#333333"/>
<path d="M140.811 60H133.965V58.698L136.513 56.122C137.017 55.6087 137.428 55.17 137.745 54.806C138.072 54.4327 138.31 54.0873 138.459 53.77C138.618 53.4527 138.697 53.1073 138.697 52.734C138.697 52.2767 138.567 51.936 138.305 51.712C138.044 51.4787 137.699 51.362 137.269 51.362C136.849 51.362 136.457 51.4507 136.093 51.628C135.729 51.796 135.351 52.0387 134.959 52.356L133.993 51.194C134.273 50.9513 134.572 50.732 134.889 50.536C135.207 50.3307 135.566 50.1673 135.967 50.046C136.369 49.9247 136.835 49.864 137.367 49.864C138.011 49.864 138.562 49.9807 139.019 50.214C139.486 50.438 139.845 50.7507 140.097 51.152C140.349 51.5533 140.475 52.02 140.475 52.552C140.475 52.9627 140.415 53.3453 140.293 53.7C140.172 54.0453 139.995 54.386 139.761 54.722C139.528 55.058 139.243 55.3987 138.907 55.744C138.571 56.0893 138.193 56.4627 137.773 56.864L136.191 58.39V58.474H140.811V60ZM145.379 49.878C145.958 49.878 146.48 49.9667 146.947 50.144C147.414 50.3213 147.787 50.5873 148.067 50.942C148.347 51.2967 148.487 51.74 148.487 52.272C148.487 52.6733 148.403 53.028 148.235 53.336C148.076 53.6347 147.857 53.896 147.577 54.12C147.306 54.344 146.998 54.5447 146.653 54.722C147.036 54.9087 147.39 55.128 147.717 55.38C148.044 55.6227 148.305 55.912 148.501 56.248C148.706 56.5747 148.809 56.962 148.809 57.41C148.809 57.9607 148.664 58.4413 148.375 58.852C148.095 59.2627 147.698 59.58 147.185 59.804C146.672 60.028 146.074 60.14 145.393 60.14C144.656 60.14 144.03 60.0327 143.517 59.818C143.004 59.6033 142.612 59.2953 142.341 58.894C142.07 58.4927 141.935 58.0167 141.935 57.466C141.935 57.0087 142.024 56.612 142.201 56.276C142.388 55.94 142.63 55.6507 142.929 55.408C143.228 55.156 143.554 54.946 143.909 54.778C143.601 54.5913 143.321 54.3813 143.069 54.148C142.817 53.9053 142.616 53.6347 142.467 53.336C142.327 53.028 142.257 52.6687 142.257 52.258C142.257 51.7353 142.397 51.2967 142.677 50.942C142.966 50.5873 143.344 50.3213 143.811 50.144C144.287 49.9667 144.81 49.878 145.379 49.878ZM143.615 57.382C143.615 57.7927 143.76 58.1333 144.049 58.404C144.338 58.6653 144.777 58.796 145.365 58.796C145.757 58.796 146.079 58.74 146.331 58.628C146.592 58.5067 146.788 58.3387 146.919 58.124C147.059 57.9093 147.129 57.662 147.129 57.382C147.129 57.102 147.05 56.8547 146.891 56.64C146.732 56.4253 146.527 56.234 146.275 56.066C146.023 55.898 145.743 55.744 145.435 55.604L145.239 55.506C144.903 55.6553 144.614 55.8233 144.371 56.01C144.128 56.1873 143.942 56.388 143.811 56.612C143.68 56.836 143.615 57.0927 143.615 57.382ZM145.365 51.208C144.954 51.208 144.614 51.3107 144.343 51.516C144.082 51.7213 143.951 52.0107 143.951 52.384C143.951 52.6547 144.016 52.888 144.147 53.084C144.278 53.28 144.45 53.448 144.665 53.588C144.889 53.728 145.132 53.8633 145.393 53.994C145.654 53.8727 145.888 53.742 146.093 53.602C146.308 53.462 146.476 53.294 146.597 53.098C146.728 52.902 146.793 52.664 146.793 52.384C146.793 52.0107 146.658 51.7213 146.387 51.516C146.126 51.3107 145.785 51.208 145.365 51.208ZM152.145 49.864C152.901 49.864 153.47 50.1393 153.853 50.69C154.245 51.2313 154.441 51.9967 154.441 52.986C154.441 53.9753 154.254 54.75 153.881 55.31C153.517 55.8607 152.938 56.136 152.145 56.136C151.669 56.136 151.263 56.01 150.927 55.758C150.591 55.506 150.339 55.1467 150.171 54.68C150.003 54.204 149.919 53.6393 149.919 52.986C149.919 51.9967 150.096 51.2313 150.451 50.69C150.805 50.1393 151.37 49.864 152.145 49.864ZM152.159 51.082C151.888 51.082 151.687 51.2407 151.557 51.558C151.435 51.8753 151.375 52.3513 151.375 52.986C151.375 53.63 151.435 54.1153 151.557 54.442C151.687 54.7593 151.888 54.918 152.159 54.918C152.439 54.918 152.644 54.7593 152.775 54.442C152.905 54.1153 152.971 53.6347 152.971 53C152.971 52.356 152.905 51.8753 152.775 51.558C152.644 51.2407 152.439 51.082 152.159 51.082ZM158.991 50.004L153.447 60H152.019L157.563 50.004H158.991ZM158.823 53.854C159.317 53.854 159.733 53.98 160.069 54.232C160.405 54.4747 160.661 54.8293 160.839 55.296C161.016 55.7533 161.105 56.3133 161.105 56.976C161.105 57.9653 160.918 58.74 160.545 59.3C160.181 59.8507 159.602 60.126 158.809 60.126C158.333 60.126 157.927 60 157.591 59.748C157.255 59.496 157.003 59.1367 156.835 58.67C156.667 58.194 156.583 57.6293 156.583 56.976C156.583 55.9867 156.76 55.2213 157.115 54.68C157.479 54.1293 158.048 53.854 158.823 53.854ZM158.823 55.086C158.552 55.086 158.351 55.2447 158.221 55.562C158.099 55.87 158.039 56.346 158.039 56.99C158.039 57.634 158.099 58.1193 158.221 58.446C158.351 58.7633 158.552 58.922 158.823 58.922C159.103 58.922 159.308 58.7633 159.439 58.446C159.579 58.1287 159.649 57.6433 159.649 56.99C159.649 56.346 159.579 55.87 159.439 55.562C159.308 55.2447 159.103 55.086 158.823 55.086Z" fill="white"/>
<path d="M173.811 109H166.965V107.698L169.513 105.122C170.017 104.609 170.428 104.17 170.745 103.806C171.072 103.433 171.31 103.087 171.459 102.77C171.618 102.453 171.697 102.107 171.697 101.734C171.697 101.277 171.567 100.936 171.305 100.712C171.044 100.479 170.699 100.362 170.269 100.362C169.849 100.362 169.457 100.451 169.093 100.628C168.729 100.796 168.351 101.039 167.959 101.356L166.993 100.194C167.273 99.9513 167.572 99.732 167.889 99.536C168.207 99.3307 168.566 99.1673 168.967 99.046C169.369 98.9247 169.835 98.864 170.367 98.864C171.011 98.864 171.562 98.9807 172.019 99.214C172.486 99.438 172.845 99.7507 173.097 100.152C173.349 100.553 173.475 101.02 173.475 101.552C173.475 101.963 173.415 102.345 173.293 102.7C173.172 103.045 172.995 103.386 172.761 103.722C172.528 104.058 172.243 104.399 171.907 104.744C171.571 105.089 171.193 105.463 170.773 105.864L169.191 107.39V107.474H173.811V109ZM181.431 101.286C181.431 101.734 181.338 102.126 181.151 102.462C180.974 102.798 180.726 103.073 180.409 103.288C180.092 103.493 179.723 103.643 179.303 103.736V103.778C180.106 103.871 180.712 104.119 181.123 104.52C181.534 104.921 181.739 105.453 181.739 106.116C181.739 106.695 181.599 107.213 181.319 107.67C181.039 108.127 180.605 108.487 180.017 108.748C179.438 109.009 178.692 109.14 177.777 109.14C177.236 109.14 176.732 109.093 176.265 109C175.798 108.916 175.36 108.781 174.949 108.594V107.04C175.369 107.255 175.817 107.418 176.293 107.53C176.769 107.642 177.217 107.698 177.637 107.698C178.449 107.698 179.023 107.553 179.359 107.264C179.695 106.965 179.863 106.555 179.863 106.032C179.863 105.696 179.779 105.421 179.611 105.206C179.443 104.991 179.168 104.833 178.785 104.73C178.412 104.618 177.922 104.562 177.315 104.562H176.475V103.148H177.329C177.917 103.148 178.379 103.083 178.715 102.952C179.06 102.821 179.303 102.639 179.443 102.406C179.592 102.173 179.667 101.902 179.667 101.594C179.667 101.193 179.536 100.88 179.275 100.656C179.014 100.432 178.622 100.32 178.099 100.32C177.763 100.32 177.46 100.357 177.189 100.432C176.918 100.507 176.671 100.605 176.447 100.726C176.223 100.838 176.013 100.959 175.817 101.09L174.977 99.872C175.229 99.6853 175.514 99.5173 175.831 99.368C176.148 99.2093 176.503 99.088 176.895 99.004C177.287 98.9107 177.716 98.864 178.183 98.864C179.219 98.864 180.017 99.0833 180.577 99.522C181.146 99.9513 181.431 100.539 181.431 101.286ZM185.145 98.864C185.901 98.864 186.47 99.1393 186.853 99.69C187.245 100.231 187.441 100.997 187.441 101.986C187.441 102.975 187.254 103.75 186.881 104.31C186.517 104.861 185.938 105.136 185.145 105.136C184.669 105.136 184.263 105.01 183.927 104.758C183.591 104.506 183.339 104.147 183.171 103.68C183.003 103.204 182.919 102.639 182.919 101.986C182.919 100.997 183.096 100.231 183.451 99.69C183.805 99.1393 184.37 98.864 185.145 98.864ZM185.159 100.082C184.888 100.082 184.687 100.241 184.557 100.558C184.435 100.875 184.375 101.351 184.375 101.986C184.375 102.63 184.435 103.115 184.557 103.442C184.687 103.759 184.888 103.918 185.159 103.918C185.439 103.918 185.644 103.759 185.775 103.442C185.905 103.115 185.971 102.635 185.971 102C185.971 101.356 185.905 100.875 185.775 100.558C185.644 100.241 185.439 100.082 185.159 100.082ZM191.991 99.004L186.447 109H185.019L190.563 99.004H191.991ZM191.823 102.854C192.317 102.854 192.733 102.98 193.069 103.232C193.405 103.475 193.661 103.829 193.839 104.296C194.016 104.753 194.105 105.313 194.105 105.976C194.105 106.965 193.918 107.74 193.545 108.3C193.181 108.851 192.602 109.126 191.809 109.126C191.333 109.126 190.927 109 190.591 108.748C190.255 108.496 190.003 108.137 189.835 107.67C189.667 107.194 189.583 106.629 189.583 105.976C189.583 104.987 189.76 104.221 190.115 103.68C190.479 103.129 191.048 102.854 191.823 102.854ZM191.823 104.086C191.552 104.086 191.351 104.245 191.221 104.562C191.099 104.87 191.039 105.346 191.039 105.99C191.039 106.634 191.099 107.119 191.221 107.446C191.351 107.763 191.552 107.922 191.823 107.922C192.103 107.922 192.308 107.763 192.439 107.446C192.579 107.129 192.649 106.643 192.649 105.99C192.649 105.346 192.579 104.87 192.439 104.562C192.308 104.245 192.103 104.086 191.823 104.086Z" fill="white"/>
<path d="M87.4373 180.714C88.0719 180.714 88.6319 180.831 89.1173 181.064C89.6026 181.297 89.9806 181.638 90.2513 182.086C90.5313 182.525 90.6713 183.066 90.6713 183.71C90.6713 184.419 90.5219 185.031 90.2233 185.544C89.9246 186.057 89.4859 186.454 88.9073 186.734C88.3286 187.005 87.6193 187.14 86.7793 187.14C86.2566 187.14 85.7666 187.093 85.3093 187C84.8519 186.907 84.4553 186.771 84.1193 186.594V185.026C84.4646 185.213 84.8799 185.367 85.3653 185.488C85.8506 185.609 86.3079 185.67 86.7373 185.67C87.1853 185.67 87.5679 185.609 87.8853 185.488C88.2026 185.357 88.4453 185.161 88.6133 184.9C88.7813 184.629 88.8653 184.289 88.8653 183.878C88.8653 183.318 88.6879 182.893 88.3333 182.604C87.9786 182.315 87.4279 182.17 86.6813 182.17C86.4199 182.17 86.1353 182.193 85.8273 182.24C85.5286 182.287 85.2813 182.333 85.0853 182.38L84.3293 181.96L84.7073 177.004H89.9713V178.544H86.2613L86.0513 180.854C86.2099 180.826 86.3966 180.798 86.6113 180.77C86.8353 180.733 87.1106 180.714 87.4373 180.714ZM98.431 179.286C98.431 179.734 98.3377 180.126 98.151 180.462C97.9737 180.798 97.7263 181.073 97.409 181.288C97.0917 181.493 96.723 181.643 96.303 181.736V181.778C97.1057 181.871 97.7123 182.119 98.123 182.52C98.5337 182.921 98.739 183.453 98.739 184.116C98.739 184.695 98.599 185.213 98.319 185.67C98.039 186.127 97.605 186.487 97.017 186.748C96.4383 187.009 95.6917 187.14 94.777 187.14C94.2357 187.14 93.7317 187.093 93.265 187C92.7983 186.916 92.3597 186.781 91.949 186.594V185.04C92.369 185.255 92.817 185.418 93.293 185.53C93.769 185.642 94.217 185.698 94.637 185.698C95.449 185.698 96.023 185.553 96.359 185.264C96.695 184.965 96.863 184.555 96.863 184.032C96.863 183.696 96.779 183.421 96.611 183.206C96.443 182.991 96.1677 182.833 95.785 182.73C95.4117 182.618 94.9217 182.562 94.315 182.562H93.475V181.148H94.329C94.917 181.148 95.379 181.083 95.715 180.952C96.0603 180.821 96.303 180.639 96.443 180.406C96.5923 180.173 96.667 179.902 96.667 179.594C96.667 179.193 96.5363 178.88 96.275 178.656C96.0137 178.432 95.6217 178.32 95.099 178.32C94.763 178.32 94.4597 178.357 94.189 178.432C93.9183 178.507 93.671 178.605 93.447 178.726C93.223 178.838 93.013 178.959 92.817 179.09L91.977 177.872C92.229 177.685 92.5137 177.517 92.831 177.368C93.1483 177.209 93.503 177.088 93.895 177.004C94.287 176.911 94.7163 176.864 95.183 176.864C96.219 176.864 97.017 177.083 97.577 177.522C98.1463 177.951 98.431 178.539 98.431 179.286ZM102.145 176.864C102.901 176.864 103.47 177.139 103.853 177.69C104.245 178.231 104.441 178.997 104.441 179.986C104.441 180.975 104.254 181.75 103.881 182.31C103.517 182.861 102.938 183.136 102.145 183.136C101.669 183.136 101.263 183.01 100.927 182.758C100.591 182.506 100.339 182.147 100.171 181.68C100.003 181.204 99.9187 180.639 99.9187 179.986C99.9187 178.997 100.096 178.231 100.451 177.69C100.805 177.139 101.37 176.864 102.145 176.864ZM102.159 178.082C101.888 178.082 101.687 178.241 101.557 178.558C101.435 178.875 101.375 179.351 101.375 179.986C101.375 180.63 101.435 181.115 101.557 181.442C101.687 181.759 101.888 181.918 102.159 181.918C102.439 181.918 102.644 181.759 102.775 181.442C102.905 181.115 102.971 180.635 102.971 180C102.971 179.356 102.905 178.875 102.775 178.558C102.644 178.241 102.439 178.082 102.159 178.082ZM108.991 177.004L103.447 187H102.019L107.563 177.004H108.991ZM108.823 180.854C109.317 180.854 109.733 180.98 110.069 181.232C110.405 181.475 110.661 181.829 110.839 182.296C111.016 182.753 111.105 183.313 111.105 183.976C111.105 184.965 110.918 185.74 110.545 186.3C110.181 186.851 109.602 187.126 108.809 187.126C108.333 187.126 107.927 187 107.591 186.748C107.255 186.496 107.003 186.137 106.835 185.67C106.667 185.194 106.583 184.629 106.583 183.976C106.583 182.987 106.76 182.221 107.115 181.68C107.479 181.129 108.048 180.854 108.823 180.854ZM108.823 182.086C108.552 182.086 108.351 182.245 108.221 182.562C108.099 182.87 108.039 183.346 108.039 183.99C108.039 184.634 108.099 185.119 108.221 185.446C108.351 185.763 108.552 185.922 108.823 185.922C109.103 185.922 109.308 185.763 109.439 185.446C109.579 185.129 109.649 184.643 109.649 183.99C109.649 183.346 109.579 182.87 109.439 182.562C109.308 182.245 109.103 182.086 108.823 182.086Z" fill="white"/>
<path d="M45.8658 65H44.1018V58.77C44.1018 58.5647 44.1018 58.3547 44.1018 58.14C44.1112 57.9253 44.1205 57.7107 44.1298 57.496C44.1392 57.272 44.1485 57.0667 44.1578 56.88C44.0645 56.9733 43.9478 57.0853 43.8078 57.216C43.6678 57.3373 43.5232 57.4633 43.3738 57.594L42.2538 58.49L41.3718 57.398L44.3958 55.004H45.8658V65ZM52.4776 58.714C53.1122 58.714 53.6722 58.8307 54.1576 59.064C54.6429 59.2973 55.0209 59.638 55.2916 60.086C55.5716 60.5247 55.7116 61.066 55.7116 61.71C55.7116 62.4193 55.5622 63.0307 55.2636 63.544C54.9649 64.0573 54.5262 64.454 53.9476 64.734C53.3689 65.0047 52.6596 65.14 51.8196 65.14C51.2969 65.14 50.8069 65.0933 50.3496 65C49.8922 64.9067 49.4956 64.7713 49.1596 64.594V63.026C49.5049 63.2127 49.9202 63.3667 50.4056 63.488C50.8909 63.6093 51.3482 63.67 51.7776 63.67C52.2256 63.67 52.6082 63.6093 52.9256 63.488C53.2429 63.3573 53.4856 63.1613 53.6536 62.9C53.8216 62.6293 53.9056 62.2887 53.9056 61.878C53.9056 61.318 53.7282 60.8933 53.3736 60.604C53.0189 60.3147 52.4682 60.17 51.7216 60.17C51.4602 60.17 51.1756 60.1933 50.8676 60.24C50.5689 60.2867 50.3216 60.3333 50.1256 60.38L49.3696 59.96L49.7476 55.004H55.0116V56.544H51.3016L51.0916 58.854C51.2502 58.826 51.4369 58.798 51.6516 58.77C51.8756 58.7327 52.1509 58.714 52.4776 58.714ZM59.1733 54.864C59.9293 54.864 60.4986 55.1393 60.8813 55.69C61.2733 56.2313 61.4693 56.9967 61.4693 57.986C61.4693 58.9753 61.2826 59.75 60.9093 60.31C60.5453 60.8607 59.9666 61.136 59.1733 61.136C58.6973 61.136 58.2913 61.01 57.9553 60.758C57.6193 60.506 57.3673 60.1467 57.1993 59.68C57.0313 59.204 56.9473 58.6393 56.9473 57.986C56.9473 56.9967 57.1246 56.2313 57.4793 55.69C57.8339 55.1393 58.3986 54.864 59.1733 54.864ZM59.1873 56.082C58.9166 56.082 58.716 56.2407 58.5853 56.558C58.4639 56.8753 58.4033 57.3513 58.4033 57.986C58.4033 58.63 58.4639 59.1153 58.5853 59.442C58.716 59.7593 58.9166 59.918 59.1873 59.918C59.4673 59.918 59.6726 59.7593 59.8033 59.442C59.934 59.1153 59.9993 58.6347 59.9993 58C59.9993 57.356 59.934 56.8753 59.8033 56.558C59.6726 56.2407 59.4673 56.082 59.1873 56.082ZM66.0193 55.004L60.4753 65H59.0473L64.5913 55.004H66.0193ZM65.8513 58.854C66.346 58.854 66.7613 58.98 67.0973 59.232C67.4333 59.4747 67.69 59.8293 67.8673 60.296C68.0446 60.7533 68.1333 61.3133 68.1333 61.976C68.1333 62.9653 67.9466 63.74 67.5733 64.3C67.2093 64.8507 66.6306 65.126 65.8373 65.126C65.3613 65.126 64.9553 65 64.6193 64.748C64.2833 64.496 64.0313 64.1367 63.8633 63.67C63.6953 63.194 63.6113 62.6293 63.6113 61.976C63.6113 60.9867 63.7886 60.2213 64.1433 59.68C64.5073 59.1293 65.0766 58.854 65.8513 58.854ZM65.8513 60.086C65.5806 60.086 65.38 60.2447 65.2493 60.562C65.128 60.87 65.0673 61.346 65.0673 61.99C65.0673 62.634 65.128 63.1193 65.2493 63.446C65.38 63.7633 65.5806 63.922 65.8513 63.922C66.1313 63.922 66.3366 63.7633 66.4673 63.446C66.6073 63.1287 66.6773 62.6433 66.6773 61.99C66.6773 61.346 66.6073 60.87 66.4673 60.562C66.3366 60.2447 66.1313 60.086 65.8513 60.086Z" fill="white"/>
</svg>
