<svg width="512" height="512" viewBox="0 0 512 512" fill="none" xmlns="http://www.w3.org/2000/svg">
<rect width="512" height="512" rx="56.8889" fill="#05365A"/>
<path d="M324.018 307.229C317.202 298.402 306.723 280.457 299.737 263.684C299.737 263.684 286.588 231.755 283.099 200.639C279.596 169.516 281.091 137.916 291.247 102.315C300.554 70.3624 318.867 41.5768 323.858 34.0948C327.025 39.4223 349.977 72.0273 359.134 112.124C368.284 152.224 368.114 176.844 364.125 204.961C356.973 255.55 334.004 294.249 324.018 307.229Z" fill="white"/>
<path d="M269.946 363.099C269.884 363.164 269.832 363.23 269.773 363.295L269.77 316.568H378.838V418.702C351.567 447.804 312.802 466 269.77 466C187.236 466 120.328 399.093 120.328 316.568C120.328 234.099 187.236 167.195 269.77 167.195V279.514C248.294 279.514 226.817 287.688 210.43 304.069C206.535 307.963 203.114 312.161 200.143 316.568C178.131 349.202 181.553 393.873 210.43 422.75C226.814 439.131 248.294 447.324 269.77 447.324C291.152 447.324 312.541 439.196 328.899 422.946C328.98 422.867 329.068 422.805 329.147 422.73L329.15 422.714C329.222 422.642 329.297 422.586 329.365 422.521C345.769 406.114 345.769 379.506 329.365 363.099C312.955 346.695 286.35 346.695 269.946 363.099Z" fill="white"/>
</svg>
