<svg width="163" height="93" viewBox="0 0 163 93" fill="none" xmlns="http://www.w3.org/2000/svg">
<g clip-path="url(#clip0_512_35)">
<path d="M54.2952 62.1445H58.5946V43.311H62.4956V40.6448H54.2952V62.1445ZM64.838 40.6453L62.5956 62.145H66.804L67.2034 56.4319H69.2304L69.6298 62.145H73.8378L71.5954 40.6453H64.838ZM67.3564 54.067L68.0937 43.3101H68.3392L69.076 54.067H67.3564ZM82.4522 40.6453H78.8877C75.8775 40.6453 75.693 42.9792 75.693 44.4848V47.5251H79.9925V44.0178C79.9925 43.4654 80.4229 43.3115 80.6683 43.3115C81.0682 43.3115 81.3441 43.6499 81.3441 44.0178V48.2929C81.3441 49.6136 80.9138 49.8895 79.6855 49.8895H77.8735V52.2545H79.6241C81.2207 52.2545 81.3441 52.9913 81.3441 53.6671V58.6673C81.3441 59.0366 81.0677 59.3741 80.6683 59.3741C80.4229 59.3741 79.9925 59.2202 79.9925 58.6673V54.6189H75.693V58.305C75.693 59.8096 75.8775 62.1445 78.8877 62.1445H82.4522C85.4634 62.1445 85.6474 59.8096 85.6474 58.305V53.9741C85.6474 53.2067 85.6169 50.9948 82.7296 51.0567V50.8413C84.0193 50.9028 85.6474 50.2575 85.6474 47.9235V44.4839C85.6469 42.9788 85.4634 40.6453 82.4522 40.6453ZM88.4746 62.1445H92.7759V43.311H94.1285V62.1445H98.428V40.6448H88.4746V62.1445ZM108.011 40.6453H101.254V62.145H105.555V54.8348H108.011C111.021 54.8348 111.206 52.5004 111.206 50.9957V44.4848C111.206 42.9788 111.022 40.6453 108.011 40.6453ZM106.906 51.3947C106.906 52.0705 106.568 52.4699 106.108 52.4699H105.555V43.311H106.108C106.568 43.311 106.906 43.7104 106.906 44.3858V51.3947ZM120.79 40.6453H117.228C114.218 40.6453 114.033 42.9792 114.033 44.4848V58.3054C114.033 59.8101 114.218 62.145 117.228 62.145H120.79C123.8 62.145 123.984 59.8101 123.984 58.3054V44.4848C123.984 42.9788 123.8 40.6453 120.79 40.6453ZM119.685 58.6673C119.685 59.0366 119.409 59.3741 119.01 59.3741C118.764 59.3741 118.334 59.2202 118.334 58.6673V44.0174C118.334 43.465 118.764 43.311 119.01 43.311C119.41 43.311 119.685 43.6494 119.685 44.0174V58.6673ZM137.991 40.6453L135.197 55.7565L132.401 40.6453H126.811V62.145H131.111V48.6618H131.266L133.476 62.145H136.916L139.128 48.6618H139.281V62.145H143.581V40.6453H137.991ZM40.1812 33.0357C41.1856 35.447 42.6921 38.0269 43.672 39.296C45.1077 37.4299 48.4098 31.8661 49.4381 24.593C50.0117 20.5507 50.0361 17.0111 48.7205 11.2459C47.4041 5.48123 44.1043 0.793626 43.649 0.0276899C42.9314 1.10338 40.2985 5.24187 38.9605 9.83561C37.5004 14.954 37.2855 19.4971 37.7891 23.9716C38.2908 28.4452 40.1812 33.0357 40.1812 33.0357ZM43.6495 37.8608C43.0032 36.6415 41.9989 34.3244 41.9032 30.7407C41.8783 27.2728 43.2665 24.3058 43.672 23.6844C44.0334 24.3058 45.2278 26.8903 45.37 30.43C45.4677 33.8941 44.3192 36.6171 43.6495 37.8608ZM39.0088 18.7809C39.1243 15.7946 39.8217 12.7285 40.2051 11.3177C41.6633 6.60526 43.3153 3.59267 43.6256 3.11443C43.9363 3.59314 46.0168 7.30079 47.0953 11.1999C48.1691 15.0972 48.3854 18.8292 48.3385 21.0304C48.2897 23.2301 48.0264 25.5495 47.6913 26.9377C47.8119 24.5465 47.5252 21.174 46.9747 18.542C46.4241 15.9105 44.8693 11.5097 43.6256 9.47564C42.4781 11.4139 41.0654 15.2178 40.3253 18.5176C39.5814 21.8198 39.5598 25.8132 39.5598 27.0105C39.3632 26.0005 38.8676 22.4013 39.0088 18.7809ZM35.8733 47.3566C35.8817 47.3472 35.8892 47.3378 35.8982 47.3284C38.2565 44.9701 42.0815 44.9701 44.4408 47.3284C46.7991 49.6873 46.7991 53.5127 44.4408 55.8715C44.4309 55.8809 44.4201 55.8889 44.4098 55.8992C44.4098 55.8997 44.4098 55.9006 44.4093 55.9016C44.3981 55.9124 44.3854 55.9213 44.3737 55.9325C42.0219 58.2688 38.9469 59.4374 35.8728 59.4374C32.7851 59.4374 29.697 58.2594 27.3415 55.9044C23.1898 51.7527 22.698 45.3305 25.8626 40.6387C26.2897 40.0051 26.7816 39.4016 27.3415 38.8417C29.6975 36.4866 32.7851 35.3114 35.8728 35.3114V19.1634C24.0069 19.1634 14.3877 28.7822 14.3877 40.6387C14.3877 52.5032 24.0069 62.1224 35.8728 62.1224C42.0594 62.1224 47.6326 59.5064 51.5534 55.3224V40.6387H35.8728L35.8733 47.3566Z" fill="white"/>
</g>
<path d="M156.7 82.1555H155.5V80.115H156.3C157.117 80.115 157.654 79.8774 157.91 79.4023C158.167 78.9238 158.295 78.3359 158.295 77.6387C158.295 76.5894 157.847 76.0647 156.951 76.0647C156.49 76.0647 156.133 76.2219 155.88 76.5364C155.627 76.8474 155.5 77.2917 155.5 77.8694V78.3718H152.963V77.7463C152.963 76.5911 153.32 75.6511 154.034 74.9265C154.752 74.2019 155.724 73.8396 156.951 73.8396C157.782 73.8396 158.5 73.9866 159.105 74.2805C159.713 74.571 160.178 74.9966 160.499 75.5571C160.821 76.1177 160.981 76.7842 160.981 77.5566C160.981 78.5205 160.803 79.269 160.448 79.8022C160.093 80.332 159.564 80.7234 158.864 80.9763C160.429 81.3318 161.212 82.5999 161.212 84.7805C161.212 85.8435 161.046 86.7083 160.715 87.3748C160.386 88.0413 159.901 88.5249 159.259 88.8257C158.616 89.123 157.818 89.2717 156.864 89.2717C155.548 89.2717 154.561 88.894 153.901 88.1387C153.245 87.3833 152.917 86.4041 152.917 85.2009V84.3191H155.5V84.842C155.5 86.3118 155.984 87.0466 156.951 87.0466C157.57 87.0466 157.973 86.8569 158.161 86.4775C158.349 86.0947 158.443 85.5 158.443 84.6934C158.443 83.7568 158.312 83.1006 158.049 82.7246C157.785 82.3452 157.336 82.1555 156.7 82.1555Z" fill="white"/>
<path d="M150.312 86.7134V89H142.058V88.2207C142.058 87.25 142.21 86.3818 142.514 85.6162C142.818 84.8472 143.192 84.1841 143.637 83.627C144.084 83.0698 144.537 82.5828 144.995 82.1658C145.457 81.7488 145.927 81.325 146.405 80.8943C147.048 80.2517 147.463 79.7476 147.651 79.3818C147.843 79.0161 147.938 78.5752 147.938 78.0591C147.938 76.7842 147.441 76.1467 146.446 76.1467C145.947 76.1467 145.57 76.321 145.313 76.6697C145.06 77.0183 144.934 77.6079 144.934 78.4385V79.2537H142.247V78.3718C142.247 77.4045 142.447 76.5774 142.847 75.8904C143.247 75.2034 143.77 74.6907 144.416 74.3523C145.062 74.0105 145.739 73.8396 146.446 73.8396C147.226 73.8396 147.937 74.002 148.579 74.3267C149.225 74.6514 149.734 75.1179 150.107 75.7263C150.479 76.3313 150.666 77.0251 150.666 77.8079C150.666 78.594 150.49 79.3699 150.138 80.1355C149.789 80.9011 149.293 81.595 148.651 82.217C148.036 82.7776 147.475 83.2903 146.969 83.7551C146.463 84.22 146.045 84.6917 145.713 85.1702C145.385 85.6453 145.188 86.1597 145.124 86.7134H150.312Z" fill="white"/>
<path d="M132.152 85.7239V77.9976C132.152 77.2183 132.31 76.5107 132.624 75.875C132.942 75.2393 133.405 74.7419 134.013 74.3831C134.622 74.0208 135.346 73.8396 136.187 73.8396C136.987 73.8396 137.7 73.9814 138.325 74.2651C138.954 74.5488 139.439 74.9453 139.781 75.4546C140.126 75.9604 140.299 76.5347 140.299 77.1772V77.3669H137.572V77.2183C137.572 76.8696 137.459 76.5911 137.233 76.3826C137.008 76.1707 136.679 76.0647 136.249 76.0647C135.784 76.0647 135.44 76.2202 135.218 76.5312C134.996 76.8423 134.885 77.3652 134.885 78.1001V79.8638C135.135 79.5732 135.49 79.3254 135.951 79.1204C136.413 78.9153 136.84 78.8127 137.233 78.8127C137.831 78.8127 138.361 78.9426 138.823 79.2024C139.284 79.4622 139.645 79.8467 139.904 80.356C140.167 80.8618 140.299 81.4685 140.299 82.176V85.7444C140.299 86.9373 139.923 87.8242 139.171 88.4053C138.419 88.9829 137.418 89.2717 136.167 89.2717C135.435 89.2717 134.767 89.1504 134.162 88.9077C133.561 88.6616 133.075 88.2737 132.706 87.7439C132.337 87.2107 132.152 86.5374 132.152 85.7239ZM137.572 85.5957V82.5759C137.572 82.1282 137.442 81.7744 137.182 81.5146C136.922 81.2549 136.611 81.125 136.249 81.125C135.856 81.125 135.529 81.2515 135.27 81.5044C135.013 81.7539 134.885 82.1248 134.885 82.6169V85.5957C134.885 86.5903 135.312 87.0876 136.167 87.0876C137.103 87.0876 137.572 86.5903 137.572 85.5957Z" fill="white"/>
<path d="M125.821 73.8396V76.2749H122.524V89H119.648V76.2749H116.269V73.8396H125.821Z" fill="white"/>
<path d="M105.19 89V73.8396H108.066V79.7202H111.865V73.8396H114.741V89H111.865V82.0068H108.066V89H105.19Z" fill="white"/>
<path d="M95.2844 89V73.8396H103.39V76.2749H98.1606V79.7202H102.929V82.0068H98.1606V86.6877H103.39V89H95.2844Z" fill="white"/>
<path d="M79.9036 73.8396H84.5024L86.5173 83.6885L88.5322 73.8396H93.1311V89H90.4241V75.2649H90.4036L87.5479 89H85.4868L82.6311 75.2854H82.6106V89H79.9036V73.8396Z" fill="white"/>
<path d="M67.6348 89L71.48 73.8396H75.3457L78.7039 89H75.5969L74.8843 85.0522H71.6287L70.7263 89H67.6348ZM71.9824 82.8066H74.5254L73.3718 75.7468L71.9824 82.8066Z" fill="white"/>
<path d="M67.1682 73.8396V76.2749H63.8716V89H60.9954V76.2749H57.6167V73.8396H67.1682Z" fill="white"/>
<path d="M47.0706 89V73.8396H52.5103C53.3066 73.8396 54.009 74.0361 54.6174 74.4292C55.2258 74.8223 55.6941 75.3572 56.0222 76.0339C56.3538 76.7073 56.5195 77.4524 56.5195 78.2693C56.5195 79.1033 56.3503 79.8689 56.012 80.5662C55.677 81.26 55.2002 81.8103 54.5815 82.217C53.9663 82.6238 53.2605 82.8271 52.4641 82.8271H49.9468V89H47.0706ZM51.3977 76.0852H49.9468V80.5815H51.3977C52.8367 80.5815 53.5562 79.8245 53.5562 78.3103C53.5562 76.8269 52.8367 76.0852 51.3977 76.0852Z" fill="white"/>
<path d="M34.8018 89L38.647 73.8396H42.5127L45.8708 89H42.7639L42.0513 85.0522H38.7957L37.8933 89H34.8018ZM39.1494 82.8066H41.6924L40.5388 75.7468L39.1494 82.8066Z" fill="white"/>
<path d="M23.9583 89V73.8396H33.5098V89H30.6335V76.1262H26.8345V89H23.9583Z" fill="white"/>
<path d="M14.053 89V73.8396H22.1587V76.2749H16.9292V79.7202H21.6973V82.0068H16.9292V86.6877H22.1587V89H14.053Z" fill="white"/>
<path d="M1.45093 86.6877C1.72778 86.0725 1.94995 85.5085 2.11743 84.9958C2.28491 84.4797 2.42163 83.9294 2.52759 83.345C2.63354 82.7571 2.71045 82.0837 2.7583 81.325C2.80957 80.5627 2.83521 79.6416 2.83521 78.5615V73.8396H11.4434V86.6877H12.3713V92.0454H9.59766V89H3.31714V92.0454H0.543457V86.6877H1.45093ZM8.56714 76.1467H5.67041V79.592C5.67041 81.2463 5.56274 82.5862 5.34741 83.6116C5.1355 84.6335 4.78857 85.6589 4.30664 86.6877H8.56714V76.1467Z" fill="white"/>
<defs>
<clipPath id="clip0_512_35">
<rect width="130" height="63" fill="white" transform="translate(14)"/>
</clipPath>
</defs>
</svg>
