<svg width="38" height="63" viewBox="0 0 38 63" fill="none" xmlns="http://www.w3.org/2000/svg">
<path d="M29.2844 39.2683C28.3044 37.9992 26.7979 35.4194 25.7935 33.008C25.7935 33.008 23.9031 28.4175 23.4014 23.9439C22.8978 19.4694 23.1128 14.9264 24.5728 9.80792C25.9109 5.21418 28.5438 1.07569 29.2614 0C29.7166 0.765936 33.0164 5.45354 34.3329 11.2182C35.6484 16.9834 35.624 20.523 35.0505 24.5653C34.0222 31.8384 30.72 37.4023 29.2844 39.2683Z" fill="white"/>
<path d="M21.5105 47.3007C21.5016 47.3101 21.4941 47.3195 21.4856 47.3289L21.4852 40.611H37.1657V55.2947C33.245 59.4787 27.6718 62.0948 21.4852 62.0948C9.61925 62.0948 0 52.4755 0 40.611C0 28.7545 9.61925 19.1357 21.4852 19.1357V35.2837C18.3975 35.2837 15.3098 36.4589 12.9538 38.814C12.3939 39.3739 11.902 39.9774 11.475 40.611C8.31031 45.3028 8.80216 51.7251 12.9538 55.8767C15.3093 58.2318 18.3975 59.4098 21.4852 59.4098C24.5592 59.4098 27.6342 58.2411 29.986 55.9049C29.9977 55.8936 30.0104 55.8847 30.0217 55.8739L30.0221 55.8715C30.0325 55.8612 30.0433 55.8532 30.0531 55.8438C32.4115 53.485 32.4115 49.6596 30.0531 47.3007C27.6938 44.9424 23.8688 44.9424 21.5105 47.3007Z" fill="white"/>
</svg>
